<?xml version="1.0" encoding="utf-8" standalone="no"?>
<!DOCTYPE svg PUBLIC "-//W3C//DTD SVG 1.1//EN"
  "http://www.w3.org/Graphics/SVG/1.1/DTD/svg11.dtd">
<svg xmlns:xlink="http://www.w3.org/1999/xlink" width="460.8pt" height="345.6pt" viewBox="0 0 460.8 345.6" xmlns="http://www.w3.org/2000/svg" version="1.1">
 <metadata>
  <rdf:RDF xmlns:dc="http://purl.org/dc/elements/1.1/" xmlns:cc="http://creativecommons.org/ns#" xmlns:rdf="http://www.w3.org/1999/02/22-rdf-syntax-ns#">
   <cc:Work>
    <dc:type rdf:resource="http://purl.org/dc/dcmitype/StillImage"/>
    <dc:date>2023-12-14T09:06:57.555462</dc:date>
    <dc:format>image/svg+xml</dc:format>
    <dc:creator>
     <cc:Agent>
      <dc:title>Matplotlib v3.8.2, https://matplotlib.org/</dc:title>
     </cc:Agent>
    </dc:creator>
   </cc:Work>
  </rdf:RDF>
 </metadata>
 <defs>
  <style type="text/css">*{stroke-linejoin: round; stroke-linecap: butt}</style>
 </defs>
 <g id="figure_1">
  <g id="patch_1">
   <path d="M 0 345.6 
L 460.8 345.6 
L 460.8 0 
L 0 0 
z
" style="fill: #ffffff"/>
  </g>
  <g id="axes_1">
   <g id="patch_2">
    <path d="M 57.6 307.584 
L 414.72 307.584 
L 414.72 41.472 
L 57.6 41.472 
z
" style="fill: #ffffff"/>
   </g>
   <g id="matplotlib.axis_1">
    <g id="xtick_1">
     <g id="line2d_1">
      <path d="M 73.832727 307.584 
L 73.832727 41.472 
" clip-path="url(#pa87dbd6ae4)" style="fill: none; stroke: #cccccc; stroke-linecap: round"/>
     </g>
     <g id="text_1">
      <!-- 0.0 -->
      <g style="fill: #262626" transform="translate(66.187727 324.957594) scale(0.11 -0.11)">
       <defs>
        <path id="ArialMT-30" d="M 266 2259 
Q 266 3072 433 3567 
Q 600 4063 929 4331 
Q 1259 4600 1759 4600 
Q 2128 4600 2406 4451 
Q 2684 4303 2865 4023 
Q 3047 3744 3150 3342 
Q 3253 2941 3253 2259 
Q 3253 1453 3087 958 
Q 2922 463 2592 192 
Q 2263 -78 1759 -78 
Q 1097 -78 719 397 
Q 266 969 266 2259 
z
M 844 2259 
Q 844 1131 1108 757 
Q 1372 384 1759 384 
Q 2147 384 2411 759 
Q 2675 1134 2675 2259 
Q 2675 3391 2411 3762 
Q 2147 4134 1753 4134 
Q 1366 4134 1134 3806 
Q 844 3388 844 2259 
z
" transform="scale(0.015625)"/>
        <path id="ArialMT-2e" d="M 581 0 
L 581 641 
L 1222 641 
L 1222 0 
L 581 0 
z
" transform="scale(0.015625)"/>
       </defs>
       <use xlink:href="#ArialMT-30"/>
       <use xlink:href="#ArialMT-2e" x="55.615234"/>
       <use xlink:href="#ArialMT-30" x="83.398438"/>
      </g>
     </g>
    </g>
    <g id="xtick_2">
     <g id="line2d_2">
      <path d="M 138.763636 307.584 
L 138.763636 41.472 
" clip-path="url(#pa87dbd6ae4)" style="fill: none; stroke: #cccccc; stroke-linecap: round"/>
     </g>
     <g id="text_2">
      <!-- 0.2 -->
      <g style="fill: #262626" transform="translate(131.118636 324.957594) scale(0.11 -0.11)">
       <defs>
        <path id="ArialMT-32" d="M 3222 541 
L 3222 0 
L 194 0 
Q 188 203 259 391 
Q 375 700 629 1000 
Q 884 1300 1366 1694 
Q 2113 2306 2375 2664 
Q 2638 3022 2638 3341 
Q 2638 3675 2398 3904 
Q 2159 4134 1775 4134 
Q 1369 4134 1125 3890 
Q 881 3647 878 3216 
L 300 3275 
Q 359 3922 746 4261 
Q 1134 4600 1788 4600 
Q 2447 4600 2831 4234 
Q 3216 3869 3216 3328 
Q 3216 3053 3103 2787 
Q 2991 2522 2730 2228 
Q 2469 1934 1863 1422 
Q 1356 997 1212 845 
Q 1069 694 975 541 
L 3222 541 
z
" transform="scale(0.015625)"/>
       </defs>
       <use xlink:href="#ArialMT-30"/>
       <use xlink:href="#ArialMT-2e" x="55.615234"/>
       <use xlink:href="#ArialMT-32" x="83.398438"/>
      </g>
     </g>
    </g>
    <g id="xtick_3">
     <g id="line2d_3">
      <path d="M 203.694545 307.584 
L 203.694545 41.472 
" clip-path="url(#pa87dbd6ae4)" style="fill: none; stroke: #cccccc; stroke-linecap: round"/>
     </g>
     <g id="text_3">
      <!-- 0.4 -->
      <g style="fill: #262626" transform="translate(196.049545 324.957594) scale(0.11 -0.11)">
       <defs>
        <path id="ArialMT-34" d="M 2069 0 
L 2069 1097 
L 81 1097 
L 81 1613 
L 2172 4581 
L 2631 4581 
L 2631 1613 
L 3250 1613 
L 3250 1097 
L 2631 1097 
L 2631 0 
L 2069 0 
z
M 2069 1613 
L 2069 3678 
L 634 1613 
L 2069 1613 
z
" transform="scale(0.015625)"/>
       </defs>
       <use xlink:href="#ArialMT-30"/>
       <use xlink:href="#ArialMT-2e" x="55.615234"/>
       <use xlink:href="#ArialMT-34" x="83.398438"/>
      </g>
     </g>
    </g>
    <g id="xtick_4">
     <g id="line2d_4">
      <path d="M 268.625455 307.584 
L 268.625455 41.472 
" clip-path="url(#pa87dbd6ae4)" style="fill: none; stroke: #cccccc; stroke-linecap: round"/>
     </g>
     <g id="text_4">
      <!-- 0.6 -->
      <g style="fill: #262626" transform="translate(260.980455 324.957594) scale(0.11 -0.11)">
       <defs>
        <path id="ArialMT-36" d="M 3184 3459 
L 2625 3416 
Q 2550 3747 2413 3897 
Q 2184 4138 1850 4138 
Q 1581 4138 1378 3988 
Q 1113 3794 959 3422 
Q 806 3050 800 2363 
Q 1003 2672 1297 2822 
Q 1591 2972 1913 2972 
Q 2475 2972 2870 2558 
Q 3266 2144 3266 1488 
Q 3266 1056 3080 686 
Q 2894 316 2569 119 
Q 2244 -78 1831 -78 
Q 1128 -78 684 439 
Q 241 956 241 2144 
Q 241 3472 731 4075 
Q 1159 4600 1884 4600 
Q 2425 4600 2770 4297 
Q 3116 3994 3184 3459 
z
M 888 1484 
Q 888 1194 1011 928 
Q 1134 663 1356 523 
Q 1578 384 1822 384 
Q 2178 384 2434 671 
Q 2691 959 2691 1453 
Q 2691 1928 2437 2201 
Q 2184 2475 1800 2475 
Q 1419 2475 1153 2201 
Q 888 1928 888 1484 
z
" transform="scale(0.015625)"/>
       </defs>
       <use xlink:href="#ArialMT-30"/>
       <use xlink:href="#ArialMT-2e" x="55.615234"/>
       <use xlink:href="#ArialMT-36" x="83.398438"/>
      </g>
     </g>
    </g>
    <g id="xtick_5">
     <g id="line2d_5">
      <path d="M 333.556364 307.584 
L 333.556364 41.472 
" clip-path="url(#pa87dbd6ae4)" style="fill: none; stroke: #cccccc; stroke-linecap: round"/>
     </g>
     <g id="text_5">
      <!-- 0.8 -->
      <g style="fill: #262626" transform="translate(325.911364 324.957594) scale(0.11 -0.11)">
       <defs>
        <path id="ArialMT-38" d="M 1131 2484 
Q 781 2613 612 2850 
Q 444 3088 444 3419 
Q 444 3919 803 4259 
Q 1163 4600 1759 4600 
Q 2359 4600 2725 4251 
Q 3091 3903 3091 3403 
Q 3091 3084 2923 2848 
Q 2756 2613 2416 2484 
Q 2838 2347 3058 2040 
Q 3278 1734 3278 1309 
Q 3278 722 2862 322 
Q 2447 -78 1769 -78 
Q 1091 -78 675 323 
Q 259 725 259 1325 
Q 259 1772 486 2073 
Q 713 2375 1131 2484 
z
M 1019 3438 
Q 1019 3113 1228 2906 
Q 1438 2700 1772 2700 
Q 2097 2700 2305 2904 
Q 2513 3109 2513 3406 
Q 2513 3716 2298 3927 
Q 2084 4138 1766 4138 
Q 1444 4138 1231 3931 
Q 1019 3725 1019 3438 
z
M 838 1322 
Q 838 1081 952 856 
Q 1066 631 1291 507 
Q 1516 384 1775 384 
Q 2178 384 2440 643 
Q 2703 903 2703 1303 
Q 2703 1709 2433 1975 
Q 2163 2241 1756 2241 
Q 1359 2241 1098 1978 
Q 838 1716 838 1322 
z
" transform="scale(0.015625)"/>
       </defs>
       <use xlink:href="#ArialMT-30"/>
       <use xlink:href="#ArialMT-2e" x="55.615234"/>
       <use xlink:href="#ArialMT-38" x="83.398438"/>
      </g>
     </g>
    </g>
    <g id="xtick_6">
     <g id="line2d_6">
      <path d="M 398.487273 307.584 
L 398.487273 41.472 
" clip-path="url(#pa87dbd6ae4)" style="fill: none; stroke: #cccccc; stroke-linecap: round"/>
     </g>
     <g id="text_6">
      <!-- 1.0 -->
      <g style="fill: #262626" transform="translate(390.842273 324.957594) scale(0.11 -0.11)">
       <defs>
        <path id="ArialMT-31" d="M 2384 0 
L 1822 0 
L 1822 3584 
Q 1619 3391 1289 3197 
Q 959 3003 697 2906 
L 697 3450 
Q 1169 3672 1522 3987 
Q 1875 4303 2022 4600 
L 2384 4600 
L 2384 0 
z
" transform="scale(0.015625)"/>
       </defs>
       <use xlink:href="#ArialMT-31"/>
       <use xlink:href="#ArialMT-2e" x="55.615234"/>
       <use xlink:href="#ArialMT-30" x="83.398438"/>
      </g>
     </g>
    </g>
    <g id="text_7">
     <!-- Recall -->
     <g style="fill: #262626" transform="translate(219.4875 339.733219) scale(0.12 -0.12)">
      <defs>
       <path id="ArialMT-52" d="M 503 0 
L 503 4581 
L 2534 4581 
Q 3147 4581 3465 4457 
Q 3784 4334 3975 4021 
Q 4166 3709 4166 3331 
Q 4166 2844 3850 2509 
Q 3534 2175 2875 2084 
Q 3116 1969 3241 1856 
Q 3506 1613 3744 1247 
L 4541 0 
L 3778 0 
L 3172 953 
Q 2906 1366 2734 1584 
Q 2563 1803 2427 1890 
Q 2291 1978 2150 2013 
Q 2047 2034 1813 2034 
L 1109 2034 
L 1109 0 
L 503 0 
z
M 1109 2559 
L 2413 2559 
Q 2828 2559 3062 2645 
Q 3297 2731 3419 2920 
Q 3541 3109 3541 3331 
Q 3541 3656 3305 3865 
Q 3069 4075 2559 4075 
L 1109 4075 
L 1109 2559 
z
" transform="scale(0.015625)"/>
       <path id="ArialMT-65" d="M 2694 1069 
L 3275 997 
Q 3138 488 2766 206 
Q 2394 -75 1816 -75 
Q 1088 -75 661 373 
Q 234 822 234 1631 
Q 234 2469 665 2931 
Q 1097 3394 1784 3394 
Q 2450 3394 2872 2941 
Q 3294 2488 3294 1666 
Q 3294 1616 3291 1516 
L 816 1516 
Q 847 969 1125 678 
Q 1403 388 1819 388 
Q 2128 388 2347 550 
Q 2566 713 2694 1069 
z
M 847 1978 
L 2700 1978 
Q 2663 2397 2488 2606 
Q 2219 2931 1791 2931 
Q 1403 2931 1139 2672 
Q 875 2413 847 1978 
z
" transform="scale(0.015625)"/>
       <path id="ArialMT-63" d="M 2588 1216 
L 3141 1144 
Q 3050 572 2676 248 
Q 2303 -75 1759 -75 
Q 1078 -75 664 370 
Q 250 816 250 1647 
Q 250 2184 428 2587 
Q 606 2991 970 3192 
Q 1334 3394 1763 3394 
Q 2303 3394 2647 3120 
Q 2991 2847 3088 2344 
L 2541 2259 
Q 2463 2594 2264 2762 
Q 2066 2931 1784 2931 
Q 1359 2931 1093 2626 
Q 828 2322 828 1663 
Q 828 994 1084 691 
Q 1341 388 1753 388 
Q 2084 388 2306 591 
Q 2528 794 2588 1216 
z
" transform="scale(0.015625)"/>
       <path id="ArialMT-61" d="M 2588 409 
Q 2275 144 1986 34 
Q 1697 -75 1366 -75 
Q 819 -75 525 192 
Q 231 459 231 875 
Q 231 1119 342 1320 
Q 453 1522 633 1644 
Q 813 1766 1038 1828 
Q 1203 1872 1538 1913 
Q 2219 1994 2541 2106 
Q 2544 2222 2544 2253 
Q 2544 2597 2384 2738 
Q 2169 2928 1744 2928 
Q 1347 2928 1158 2789 
Q 969 2650 878 2297 
L 328 2372 
Q 403 2725 575 2942 
Q 747 3159 1072 3276 
Q 1397 3394 1825 3394 
Q 2250 3394 2515 3294 
Q 2781 3194 2906 3042 
Q 3031 2891 3081 2659 
Q 3109 2516 3109 2141 
L 3109 1391 
Q 3109 606 3145 398 
Q 3181 191 3288 0 
L 2700 0 
Q 2613 175 2588 409 
z
M 2541 1666 
Q 2234 1541 1622 1453 
Q 1275 1403 1131 1340 
Q 988 1278 909 1158 
Q 831 1038 831 891 
Q 831 666 1001 516 
Q 1172 366 1500 366 
Q 1825 366 2078 508 
Q 2331 650 2450 897 
Q 2541 1088 2541 1459 
L 2541 1666 
z
" transform="scale(0.015625)"/>
       <path id="ArialMT-6c" d="M 409 0 
L 409 4581 
L 972 4581 
L 972 0 
L 409 0 
z
" transform="scale(0.015625)"/>
      </defs>
      <use xlink:href="#ArialMT-52"/>
      <use xlink:href="#ArialMT-65" x="72.216797"/>
      <use xlink:href="#ArialMT-63" x="127.832031"/>
      <use xlink:href="#ArialMT-61" x="177.832031"/>
      <use xlink:href="#ArialMT-6c" x="233.447266"/>
      <use xlink:href="#ArialMT-6c" x="255.664062"/>
     </g>
    </g>
   </g>
   <g id="matplotlib.axis_2">
    <g id="ytick_1">
     <g id="line2d_7">
      <path d="M 57.6 295.488 
L 414.72 295.488 
" clip-path="url(#pa87dbd6ae4)" style="fill: none; stroke: #cccccc; stroke-linecap: round"/>
     </g>
     <g id="text_8">
      <!-- 0.0 -->
      <g style="fill: #262626" transform="translate(32.81 299.424797) scale(0.11 -0.11)">
       <use xlink:href="#ArialMT-30"/>
       <use xlink:href="#ArialMT-2e" x="55.615234"/>
       <use xlink:href="#ArialMT-30" x="83.398438"/>
      </g>
     </g>
    </g>
    <g id="ytick_2">
     <g id="line2d_8">
      <path d="M 57.6 247.104 
L 414.72 247.104 
" clip-path="url(#pa87dbd6ae4)" style="fill: none; stroke: #cccccc; stroke-linecap: round"/>
     </g>
     <g id="text_9">
      <!-- 0.2 -->
      <g style="fill: #262626" transform="translate(32.81 251.040797) scale(0.11 -0.11)">
       <use xlink:href="#ArialMT-30"/>
       <use xlink:href="#ArialMT-2e" x="55.615234"/>
       <use xlink:href="#ArialMT-32" x="83.398438"/>
      </g>
     </g>
    </g>
    <g id="ytick_3">
     <g id="line2d_9">
      <path d="M 57.6 198.72 
L 414.72 198.72 
" clip-path="url(#pa87dbd6ae4)" style="fill: none; stroke: #cccccc; stroke-linecap: round"/>
     </g>
     <g id="text_10">
      <!-- 0.4 -->
      <g style="fill: #262626" transform="translate(32.81 202.656797) scale(0.11 -0.11)">
       <use xlink:href="#ArialMT-30"/>
       <use xlink:href="#ArialMT-2e" x="55.615234"/>
       <use xlink:href="#ArialMT-34" x="83.398438"/>
      </g>
     </g>
    </g>
    <g id="ytick_4">
     <g id="line2d_10">
      <path d="M 57.6 150.336 
L 414.72 150.336 
" clip-path="url(#pa87dbd6ae4)" style="fill: none; stroke: #cccccc; stroke-linecap: round"/>
     </g>
     <g id="text_11">
      <!-- 0.6 -->
      <g style="fill: #262626" transform="translate(32.81 154.272797) scale(0.11 -0.11)">
       <use xlink:href="#ArialMT-30"/>
       <use xlink:href="#ArialMT-2e" x="55.615234"/>
       <use xlink:href="#ArialMT-36" x="83.398438"/>
      </g>
     </g>
    </g>
    <g id="ytick_5">
     <g id="line2d_11">
      <path d="M 57.6 101.952 
L 414.72 101.952 
" clip-path="url(#pa87dbd6ae4)" style="fill: none; stroke: #cccccc; stroke-linecap: round"/>
     </g>
     <g id="text_12">
      <!-- 0.8 -->
      <g style="fill: #262626" transform="translate(32.81 105.888797) scale(0.11 -0.11)">
       <use xlink:href="#ArialMT-30"/>
       <use xlink:href="#ArialMT-2e" x="55.615234"/>
       <use xlink:href="#ArialMT-38" x="83.398438"/>
      </g>
     </g>
    </g>
    <g id="ytick_6">
     <g id="line2d_12">
      <path d="M 57.6 53.568 
L 414.72 53.568 
" clip-path="url(#pa87dbd6ae4)" style="fill: none; stroke: #cccccc; stroke-linecap: round"/>
     </g>
     <g id="text_13">
      <!-- 1.0 -->
      <g style="fill: #262626" transform="translate(32.81 57.504797) scale(0.11 -0.11)">
       <use xlink:href="#ArialMT-31"/>
       <use xlink:href="#ArialMT-2e" x="55.615234"/>
       <use xlink:href="#ArialMT-30" x="83.398438"/>
      </g>
     </g>
    </g>
    <g id="text_14">
     <!-- Precision -->
     <g style="fill: #262626" transform="translate(26.425 199.203937) rotate(-90) scale(0.12 -0.12)">
      <defs>
       <path id="ArialMT-50" d="M 494 0 
L 494 4581 
L 2222 4581 
Q 2678 4581 2919 4538 
Q 3256 4481 3484 4323 
Q 3713 4166 3852 3881 
Q 3991 3597 3991 3256 
Q 3991 2672 3619 2267 
Q 3247 1863 2275 1863 
L 1100 1863 
L 1100 0 
L 494 0 
z
M 1100 2403 
L 2284 2403 
Q 2872 2403 3119 2622 
Q 3366 2841 3366 3238 
Q 3366 3525 3220 3729 
Q 3075 3934 2838 4000 
Q 2684 4041 2272 4041 
L 1100 4041 
L 1100 2403 
z
" transform="scale(0.015625)"/>
       <path id="ArialMT-72" d="M 416 0 
L 416 3319 
L 922 3319 
L 922 2816 
Q 1116 3169 1280 3281 
Q 1444 3394 1641 3394 
Q 1925 3394 2219 3213 
L 2025 2691 
Q 1819 2813 1613 2813 
Q 1428 2813 1281 2702 
Q 1134 2591 1072 2394 
Q 978 2094 978 1738 
L 978 0 
L 416 0 
z
" transform="scale(0.015625)"/>
       <path id="ArialMT-69" d="M 425 3934 
L 425 4581 
L 988 4581 
L 988 3934 
L 425 3934 
z
M 425 0 
L 425 3319 
L 988 3319 
L 988 0 
L 425 0 
z
" transform="scale(0.015625)"/>
       <path id="ArialMT-73" d="M 197 991 
L 753 1078 
Q 800 744 1014 566 
Q 1228 388 1613 388 
Q 2000 388 2187 545 
Q 2375 703 2375 916 
Q 2375 1106 2209 1216 
Q 2094 1291 1634 1406 
Q 1016 1563 777 1677 
Q 538 1791 414 1992 
Q 291 2194 291 2438 
Q 291 2659 392 2848 
Q 494 3038 669 3163 
Q 800 3259 1026 3326 
Q 1253 3394 1513 3394 
Q 1903 3394 2198 3281 
Q 2494 3169 2634 2976 
Q 2775 2784 2828 2463 
L 2278 2388 
Q 2241 2644 2061 2787 
Q 1881 2931 1553 2931 
Q 1166 2931 1000 2803 
Q 834 2675 834 2503 
Q 834 2394 903 2306 
Q 972 2216 1119 2156 
Q 1203 2125 1616 2013 
Q 2213 1853 2448 1751 
Q 2684 1650 2818 1456 
Q 2953 1263 2953 975 
Q 2953 694 2789 445 
Q 2625 197 2315 61 
Q 2006 -75 1616 -75 
Q 969 -75 630 194 
Q 291 463 197 991 
z
" transform="scale(0.015625)"/>
       <path id="ArialMT-6f" d="M 213 1659 
Q 213 2581 725 3025 
Q 1153 3394 1769 3394 
Q 2453 3394 2887 2945 
Q 3322 2497 3322 1706 
Q 3322 1066 3130 698 
Q 2938 331 2570 128 
Q 2203 -75 1769 -75 
Q 1072 -75 642 372 
Q 213 819 213 1659 
z
M 791 1659 
Q 791 1022 1069 705 
Q 1347 388 1769 388 
Q 2188 388 2466 706 
Q 2744 1025 2744 1678 
Q 2744 2294 2464 2611 
Q 2184 2928 1769 2928 
Q 1347 2928 1069 2612 
Q 791 2297 791 1659 
z
" transform="scale(0.015625)"/>
       <path id="ArialMT-6e" d="M 422 0 
L 422 3319 
L 928 3319 
L 928 2847 
Q 1294 3394 1984 3394 
Q 2284 3394 2536 3286 
Q 2788 3178 2913 3003 
Q 3038 2828 3088 2588 
Q 3119 2431 3119 2041 
L 3119 0 
L 2556 0 
L 2556 2019 
Q 2556 2363 2490 2533 
Q 2425 2703 2258 2804 
Q 2091 2906 1866 2906 
Q 1506 2906 1245 2678 
Q 984 2450 984 1813 
L 984 0 
L 422 0 
z
" transform="scale(0.015625)"/>
      </defs>
      <use xlink:href="#ArialMT-50"/>
      <use xlink:href="#ArialMT-72" x="66.699219"/>
      <use xlink:href="#ArialMT-65" x="100"/>
      <use xlink:href="#ArialMT-63" x="155.615234"/>
      <use xlink:href="#ArialMT-69" x="205.615234"/>
      <use xlink:href="#ArialMT-73" x="227.832031"/>
      <use xlink:href="#ArialMT-69" x="277.832031"/>
      <use xlink:href="#ArialMT-6f" x="300.048828"/>
      <use xlink:href="#ArialMT-6e" x="355.664062"/>
     </g>
    </g>
   </g>
   <g id="line2d_13">
    <path d="M 398.487273 68.770623 
L 397.540758 68.812274 
L 390.59965 67.638394 
L 385.551572 65.221179 
L 382.712028 65.323102 
L 379.556979 64.075878 
L 373.87789 61.918538 
L 372.931376 61.944049 
L 371.984861 61.969716 
L 371.038346 61.995541 
L 369.460822 61.557102 
L 359.364665 60.828193 
L 359.04916 60.58394 
L 352.739062 59.962361 
L 333.808768 59.020527 
L 330.653719 59.085983 
L 319.926552 58.728151 
L 319.611047 58.43683 
L 318.664532 58.455273 
L 313.616454 58.556041 
L 311.407919 58.601446 
L 309.199385 58.024421 
L 308.25287 58.042082 
L 306.044336 58.08384 
L 282.381468 58.5856 
L 275.755865 55.814935 
L 270.392282 54.342144 
L 269.445767 54.345878 
L 261.558145 54.378452 
L 259.34961 54.388068 
L 256.510066 54.400771 
L 255.879056 54.403648 
L 255.563552 54.405093 
L 254.932542 54.408 
L 253.986027 53.990937 
L 253.670522 53.991678 
L 251.461988 53.996936 
L 249.253453 54.002327 
L 248.622444 54.003892 
L 248.306939 54.004679 
L 247.991434 54.005468 
L 247.675929 54.006261 
L 247.360424 54.007056 
L 247.044919 54.007855 
L 246.413909 53.568 
L 73.832727 53.568 
" clip-path="url(#pa87dbd6ae4)" style="fill: none; stroke: #4c72b0; stroke-width: 1.5; stroke-linecap: round"/>
   </g>
   <g id="line2d_14">
    <path d="M 398.487273 68.770623 
" clip-path="url(#pa87dbd6ae4)" style="fill: none; stroke: #4c72b0; stroke-width: 1.5; stroke-linecap: round"/>
    <defs>
     <path id="m6423809d9f" d="M 0 3 
C 0.795609 3 1.55874 2.683901 2.12132 2.12132 
C 2.683901 1.55874 3 0.795609 3 0 
C 3 -0.795609 2.683901 -1.55874 2.12132 -2.12132 
C 1.55874 -2.683901 0.795609 -3 0 -3 
C -0.795609 -3 -1.55874 -2.683901 -2.12132 -2.12132 
C -2.683901 -1.55874 -3 -0.795609 -3 0 
C -3 0.795609 -2.683901 1.55874 -2.12132 2.12132 
C -1.55874 2.683901 -0.795609 3 0 3 
z
" style="stroke: #4c72b0"/>
    </defs>
    <g clip-path="url(#pa87dbd6ae4)">
     <use xlink:href="#m6423809d9f" x="398.487273" y="68.770623" style="fill: #4c72b0; stroke: #4c72b0"/>
    </g>
   </g>
   <g id="line2d_15">
    <path d="M 398.487273 129.801443 
L 398.055551 129.870935 
L 397.62383 129.78937 
L 397.62383 129.48617 
L 396.328665 129.695119 
L 395.896944 129.612706 
L 395.896944 120.781011 
L 395.465222 120.84614 
L 395.465222 119.995887 
L 395.033501 120.060632 
L 395.033501 119.374027 
L 394.601779 119.265882 
L 394.601779 117.344729 
L 394.170058 117.231158 
L 394.170058 117.053964 
L 393.738337 117.117134 
L 393.738337 116.22528 
L 393.306615 116.288 
L 393.306615 113.371215 
L 392.874894 112.874231 
L 392.874894 111.369689 
L 392.443172 111.429278 
L 392.443172 109.898644 
L 392.011451 109.957261 
L 392.011451 107.809011 
L 391.579729 107.668253 
L 391.579729 103.206013 
L 391.148008 103.051636 
L 391.148008 102.214957 
L 390.716286 102.267891 
L 390.716286 99.278851 
L 390.284565 99.112186 
L 390.284565 98.4576 
L 389.852843 98.507533 
L 389.421122 97.454943 
L 388.9894 97.504143 
L 388.9894 94.347226 
L 387.694236 92.398115 
L 387.694236 90.504503 
L 386.830793 89.628845 
L 386.830793 86.688 
L 385.535629 86.056058 
L 385.535629 85.299986 
L 385.103907 84.320542 
L 384.672186 84.357818 
L 384.672186 83.329169 
L 384.240464 83.106462 
L 383.377021 82.918588 
L 382.513578 82.204646 
L 382.513578 81.67737 
L 382.081857 81.712158 
L 382.081857 81.447257 
L 381.650135 81.216 
L 381.218414 81.250388 
L 380.354971 81.052045 
L 379.92325 80.009005 
L 379.059807 79.531636 
L 379.059807 78.71051 
L 377.332921 78.838624 
L 376.901199 78.594207 
L 376.037756 78.380308 
L 373.879149 77.979074 
L 373.879149 76.847688 
L 372.583985 76.938862 
L 372.152263 76.683393 
L 371.720542 76.713688 
L 370.857099 76.198198 
L 367.403327 76.439265 
L 367.403327 76.1472 
L 366.108162 75.353806 
L 363.517834 75.530927 
L 362.654391 75.291429 
L 359.200619 75.530476 
L 358.337176 75.287337 
L 354.451683 75.560727 
L 354.451683 74.94382 
L 354.019961 74.663696 
L 347.975861 75.087426 
L 346.680696 74.862545 
L 345.817253 74.924179 
L 344.95381 74.665674 
L 344.522089 74.374531 
L 335.88766 74.999351 
L 335.024217 74.731439 
L 335.024217 74.39797 
L 330.27528 74.749935 
L 329.411838 74.474667 
L 328.116673 74.571907 
L 327.684952 74.261002 
L 326.389787 74.358 
L 325.526344 74.076132 
L 324.662901 74.140724 
L 323.799458 73.855595 
L 310.847814 74.866605 
L 310.416093 74.5344 
L 309.120928 74.639759 
L 308.257485 74.338909 
L 307.394043 74.409081 
L 307.394043 74.035005 
L 306.5306 73.350215 
L 304.803714 73.485942 
L 303.940271 73.171862 
L 303.508549 73.20572 
L 302.645106 72.888 
L 299.191335 73.160113 
L 298.327892 72.835965 
L 295.305841 73.077677 
L 294.442398 72.747243 
L 293.578956 72.008363 
L 291.85207 71.323596 
L 289.693462 71.488 
L 288.830019 71.137609 
L 287.103133 71.269463 
L 286.671412 70.880542 
L 281.490754 71.280832 
L 280.627311 70.914977 
L 279.332147 71.016421 
L 278.900426 70.611288 
L 278.036983 70.678255 
L 277.17354 70.301597 
L 262.926731 71.469057 
L 262.063288 71.068596 
L 259.041238 71.333184 
L 256.882631 71.037059 
L 249.975087 71.670857 
L 249.111644 71.242521 
L 247.384758 70.887908 
L 241.772379 71.424 
L 239.613772 71.098435 
L 238.750329 70.637781 
L 235.296557 70.976635 
L 234.433114 70.5024 
L 222.776634 71.728214 
L 222.776634 71.12671 
L 222.344913 70.567784 
L 221.48147 70.660174 
L 220.618027 69.518769 
L 219.754584 68.981186 
L 219.754584 68.352 
L 215.005648 68.817971 
L 212.847041 68.379429 
L 211.983598 68.466299 
L 211.120155 67.882793 
L 210.256712 67.968 
L 208.529826 67.454647 
L 204.644333 67.842783 
L 204.644333 67.133607 
L 203.349168 66.541628 
L 202.485725 65.16161 
L 200.327118 65.349818 
L 199.895397 64.636235 
L 187.807195 65.751022 
L 187.375474 64.962783 
L 178.309323 65.901176 
L 167.948008 67.182545 
L 159.313578 68.473024 
L 151.974313 69.779134 
L 145.06677 71.236315 
L 144.635048 70.062545 
L 138.590948 71.488 
L 138.159226 70.2 
L 132.978569 71.548541 
L 129.956518 72.441191 
L 127.797911 71.488 
L 126.502747 71.895273 
L 124.344139 69.05088 
L 123.048975 69.431607 
L 122.617253 67.68 
L 122.185532 67.798588 
L 120.458646 64.272425 
L 117.868317 64.872673 
L 116.573153 62.962951 
L 112.255938 63.973161 
L 111.392495 64.201846 
L 110.960774 61.722607 
L 107.507002 62.528 
L 102.758066 63.936 
L 99.736015 65.088 
L 97.577408 66.081103 
L 95.418801 67.261585 
L 93.691915 68.379429 
L 93.260193 63.862468 
L 92.39675 64.32 
L 91.101586 59.468488 
L 88.942979 60.288 
L 86.784371 61.371871 
L 85.057485 62.528 
L 83.3306 64.086261 
L 82.035435 65.664 
L 81.171992 67.008 
L 80.308549 68.688 
L 79.013385 72.177231 
L 78.149942 75.560727 
L 77.286499 80.448 
L 76.854778 83.808 
L 76.423056 88.128 
L 75.991335 93.888 
L 75.559613 101.952 
L 75.127892 114.048 
L 74.69617 53.568 
L 73.832727 53.568 
L 73.832727 53.568 
" clip-path="url(#pa87dbd6ae4)" style="fill: none; stroke: #dd8452; stroke-width: 1.5; stroke-linecap: round"/>
   </g>
   <g id="line2d_16">
    <path d="M 379.059807 78.71051 
" clip-path="url(#pa87dbd6ae4)" style="fill: none; stroke: #dd8452; stroke-width: 1.5; stroke-linecap: round"/>
    <defs>
     <path id="mf295425dce" d="M 0 3 
C 0.795609 3 1.55874 2.683901 2.12132 2.12132 
C 2.683901 1.55874 3 0.795609 3 0 
C 3 -0.795609 2.683901 -1.55874 2.12132 -2.12132 
C 1.55874 -2.683901 0.795609 -3 0 -3 
C -0.795609 -3 -1.55874 -2.683901 -2.12132 -2.12132 
C -2.683901 -1.55874 -3 -0.795609 -3 0 
C -3 0.795609 -2.683901 1.55874 -2.12132 2.12132 
C -1.55874 2.683901 -0.795609 3 0 3 
z
" style="stroke: #dd8452"/>
    </defs>
    <g clip-path="url(#pa87dbd6ae4)">
     <use xlink:href="#mf295425dce" x="379.059807" y="78.71051" style="fill: #dd8452; stroke: #dd8452"/>
    </g>
   </g>
   <g id="line2d_17">
    <path d="M 398.487273 200.747016 
L 397.732262 196.363186 
L 396.977252 196.404976 
L 396.977252 195.253963 
L 393.957209 195.61061 
L 393.957209 195.513263 
L 393.957209 194.33013 
L 392.447188 194.308377 
L 391.692178 194.146388 
L 391.692178 193.333216 
L 390.182156 193.408967 
L 390.182156 193.306065 
L 390.182156 191.203556 
L 389.427146 191.022545 
L 389.427146 190.589079 
L 388.672135 190.62247 
L 388.672135 190.513349 
L 388.672135 185.954189 
L 387.917125 185.979055 
L 387.917125 185.017396 
L 387.162114 184.918837 
L 387.162114 184.552309 
L 386.407104 184.697204 
L 386.407104 177.797189 
L 385.652093 177.666113 
L 385.652093 177.107716 
L 384.897082 176.973089 
L 384.897082 176.40671 
L 384.142072 176.268432 
L 384.142072 169.946182 
L 382.632051 169.922924 
L 382.632051 168.308977 
L 381.87704 168.292948 
L 381.87704 167.468078 
L 380.367019 167.431259 
L 380.367019 165.739625 
L 378.101987 165.669411 
L 377.346977 165.81888 
L 377.346977 165.29812 
L 376.591966 164.922832 
L 376.591966 163.859886 
L 375.836956 163.830857 
L 373.571924 163.38038 
L 373.571924 160.597213 
L 367.531839 161.813455 
L 367.531839 160.66439 
L 366.776829 160.624552 
L 366.776829 158.458861 
L 366.021818 158.210815 
L 366.021818 155.333749 
L 365.266808 155.065263 
L 365.266808 154.641665 
L 364.511797 153.507512 
L 364.511797 149.501793 
L 363.756786 148.730844 
L 363.756786 148.265686 
L 360.736744 148.869818 
L 360.736744 145.765524 
L 357.716702 145.385822 
L 357.716702 141.836108 
L 356.961691 141.725288 
L 356.961691 138.804062 
L 356.206681 138.951529 
L 356.206681 138.134817 
L 350.166596 139.328 
L 350.166596 138.775221 
L 349.411586 138.369139 
L 349.411586 136.958736 
L 348.656575 135.961043 
L 347.146554 135.387378 
L 347.146554 133.611771 
L 346.391543 133.459948 
L 344.126512 133.605084 
L 344.126512 132.997644 
L 342.61649 133.296814 
L 341.86148 132.833455 
L 340.351459 132.8256 
L 336.576406 133.587692 
L 336.576406 132.015845 
L 332.801353 131.17402 
L 332.801353 130.848 
L 330.536321 130.9824 
L 328.27129 130.786909 
L 328.27129 130.453506 
L 326.761268 129.074858 
L 325.251247 128.698435 
L 325.251247 128.352398 
L 318.456152 128.717617 
L 316.946131 129.038769 
L 314.681099 129.168 
L 314.681099 128.808778 
L 312.416068 128.937412 
L 310.151036 128.701744 
L 310.151036 127.592302 
L 308.641015 127.548 
L 305.620973 128.214486 
L 305.620973 127.836894 
L 303.355941 127.580055 
L 302.60093 127.749419 
L 302.60093 126.589935 
L 301.84592 126.758577 
L 301.84592 124.387672 
L 300.335899 124.720941 
L 298.070867 124.822347 
L 295.805835 125.333742 
L 292.785793 125.204505 
L 290.520761 124.895764 
L 289.765751 125.071448 
L 287.500719 122.600727 
L 285.235687 123.127695 
L 285.235687 122.246056 
L 282.215645 121.154005 
L 279.950613 121.229003 
L 279.195603 121.408 
L 278.440592 120.193027 
L 276.17556 119.784585 
L 274.665539 120.145439 
L 274.665539 119.666361 
L 271.645497 118.440402 
L 270.890486 118.622118 
L 268.625455 118.171636 
L 266.360423 118.726968 
L 264.095391 118.267535 
L 262.58537 117.605647 
L 257.300296 118.951784 
L 255.790275 118.813091 
L 248.99518 120.096 
L 247.485159 120.514415 
L 247.485159 119.962448 
L 244.465116 120.810939 
L 242.955095 120.68129 
L 240.690063 120.195148 
L 229.364905 123.641379 
L 227.099873 123.173053 
L 224.834841 119.546182 
L 222.56981 118.976 
L 218.039746 119.126473 
L 218.039746 118.450759 
L 216.529725 118.951784 
L 216.529725 117.577961 
L 214.264693 116.928 
L 209.73463 117.022426 
L 209.73463 115.547504 
L 208.979619 115.80468 
L 208.224609 113.79281 
L 205.204567 114.048 
L 204.449556 113.522087 
L 202.184524 113.512779 
L 192.369387 117.17138 
L 190.104355 116.374154 
L 183.30926 119.214633 
L 180.289218 119.659546 
L 175.759154 120.839872 
L 174.249133 121.567135 
L 171.984101 120.768 
L 170.47408 121.523056 
L 167.454038 121.080558 
L 165.189006 120.204647 
L 162.168964 120.768 
L 158.393911 122.908127 
L 157.638901 122.242065 
L 155.373869 122.459126 
L 150.843805 125.309793 
L 147.823763 127.345021 
L 147.068753 126.666129 
L 144.04871 128.832 
L 143.2937 128.144842 
L 141.028668 129.865846 
L 139.518647 129.763276 
L 136.498605 132.241171 
L 131.968541 134.903172 
L 130.45852 136.330105 
L 128.948499 136.387459 
L 126.683467 135.729509 
L 125.173446 135.773825 
L 122.153404 137.499429 
L 120.643383 139.248 
L 116.86833 142.272 
L 116.113319 141.538909 
L 113.848288 141.008964 
L 112.338266 141.264 
L 110.828245 143.512615 
L 106.298182 148.97307 
L 105.543171 148.232348 
L 104.03315 148.869818 
L 99.503087 153.672828 
L 97.238055 156.608 
L 95.728034 155.1744 
L 94.973023 154.368 
L 91.952981 153.876293 
L 90.44296 155.429053 
L 88.932939 148.869818 
L 86.667907 143.168 
L 85.157886 150.336 
L 83.647865 145.728 
L 83.647865 129.963789 
L 82.892854 114.048 
L 82.137844 118.08 
L 81.382833 93.888 
L 79.872812 101.952 
L 79.117801 83.808 
L 77.60778 93.888 
L 76.097759 114.048 
L 74.587738 174.528 
L 73.832727 53.568 
L 73.832727 53.568 
" clip-path="url(#pa87dbd6ae4)" style="fill: none; stroke: #55a868; stroke-width: 1.5; stroke-linecap: round"/>
   </g>
   <g id="line2d_18">
    <path d="M 347.146554 133.611771 
" clip-path="url(#pa87dbd6ae4)" style="fill: none; stroke: #55a868; stroke-width: 1.5; stroke-linecap: round"/>
    <defs>
     <path id="mc0e3bc51d1" d="M 0 3 
C 0.795609 3 1.55874 2.683901 2.12132 2.12132 
C 2.683901 1.55874 3 0.795609 3 0 
C 3 -0.795609 2.683901 -1.55874 2.12132 -2.12132 
C 1.55874 -2.683901 0.795609 -3 0 -3 
C -0.795609 -3 -1.55874 -2.683901 -2.12132 -2.12132 
C -2.683901 -1.55874 -3 -0.795609 -3 0 
C -3 0.795609 -2.683901 1.55874 -2.12132 2.12132 
C -1.55874 2.683901 -0.795609 3 0 3 
z
" style="stroke: #55a868"/>
    </defs>
    <g clip-path="url(#pa87dbd6ae4)">
     <use xlink:href="#mc0e3bc51d1" x="347.146554" y="133.611771" style="fill: #55a868; stroke: #55a868"/>
    </g>
   </g>
   <g id="line2d_19">
    <path d="M 398.487273 255.608656 
L 391.312587 255.243789 
L 391.312587 254.977272 
L 387.725244 255.282872 
L 387.725244 252.332037 
L 380.550558 253.058954 
L 380.550558 252.971741 
L 380.550558 252.485588 
L 378.756886 252.648 
L 378.756886 251.921898 
L 376.963214 252.132242 
L 376.963214 251.240727 
L 375.169543 251.407132 
L 375.169543 249.770835 
L 367.994857 250.556086 
L 367.994857 249.832212 
L 366.201185 249.953404 
L 364.407514 249.917023 
L 362.613842 250.145602 
L 362.613842 249.719351 
L 360.820171 249.734809 
L 357.232828 250.145936 
L 357.232828 250.038107 
L 357.232828 249.156655 
L 355.439156 248.885006 
L 355.439156 248.655152 
L 353.645485 248.838408 
L 353.645485 248.780673 
L 353.645485 247.89718 
L 351.851813 247.962525 
L 351.851813 247.228541 
L 350.058142 247.166755 
L 348.26447 247.355672 
L 348.26447 247.293 
L 348.26447 246.528 
L 346.470799 246.45888 
L 346.470799 245.661659 
L 344.677127 245.922301 
L 344.677127 242.546087 
L 342.883456 242.820366 
L 342.883456 242.743814 
L 342.883456 242.512818 
L 341.089784 242.479059 
L 341.089784 241.037728 
L 339.296113 241.239273 
L 339.296113 238.565647 
L 337.502441 238.405753 
L 337.502441 235.416649 
L 335.708769 235.623051 
L 335.708769 235.521413 
L 335.708769 233.954341 
L 333.915098 233.621333 
L 333.915098 231.241846 
L 332.121426 231.214052 
L 332.121426 230.005895 
L 330.327755 230.091856 
L 330.327755 229.087693 
L 328.534083 229.041888 
L 328.534083 228.783845 
L 324.94674 228.948118 
L 324.94674 228.020271 
L 323.153069 228.368479 
L 323.153069 227.554909 
L 321.359397 227.494191 
L 319.565726 227.571934 
L 319.565726 224.970894 
L 317.772054 224.884738 
L 317.772054 224.732903 
L 315.978383 224.949771 
L 315.978383 223.392636 
L 314.184711 223.128 
L 314.184711 222.145738 
L 310.597368 222.246165 
L 308.803697 222.633931 
L 307.010025 222.688 
L 307.010025 222.349395 
L 305.216354 222.402098 
L 305.216354 221.884981 
L 303.422682 221.935126 
L 303.422682 221.76 
L 301.629011 221.809727 
L 296.247996 223.02887 
L 294.454324 223.088584 
L 294.454324 221.467701 
L 292.660653 221.886404 
L 292.660653 220.957091 
L 283.692295 221.197606 
L 281.898624 221.638737 
L 280.104952 221.692775 
L 280.104952 220.700903 
L 278.311281 221.151396 
L 276.517609 221.202783 
L 276.517609 220.796852 
L 274.723938 221.255014 
L 274.723938 220.846017 
L 269.342923 222.24 
L 269.342923 218.609633 
L 263.961909 220.065882 
L 262.168237 220.112332 
L 262.168237 219.435305 
L 260.374566 219.476882 
L 260.374566 216.369509 
L 258.580894 216.883079 
L 258.580894 216.634329 
L 256.787223 216.65145 
L 253.199879 217.700219 
L 253.199879 216.686697 
L 251.406208 216.704842 
L 251.406208 215.6544 
L 249.612536 216.196495 
L 247.818865 216.210162 
L 247.818865 215.670857 
L 246.025193 215.67934 
L 242.43785 216.801218 
L 242.43785 216.528 
L 240.644179 216.545684 
L 240.644179 215.42195 
L 238.850507 216 
L 238.850507 215.715097 
L 237.056836 216.29836 
L 233.469493 215.744 
L 233.469493 213.621536 
L 231.675821 213.607385 
L 229.88215 214.225297 
L 229.88215 213.273 
L 228.088478 213.899294 
L 228.088478 210.569143 
L 222.707464 212.515438 
L 222.707464 211.120941 
L 220.913792 211.785722 
L 217.326449 212.780308 
L 217.326449 212.425339 
L 215.532777 213.110069 
L 215.532777 212.753455 
L 213.739106 213.445565 
L 213.739106 213.087301 
L 211.945434 213.786947 
L 211.945434 212.6976 
L 210.151763 212.668541 
L 210.151763 211.148917 
L 206.56442 211.044226 
L 204.770748 211.790559 
L 204.770748 210.173217 
L 202.977077 210.933437 
L 202.977077 209.259089 
L 199.389734 209.960727 
L 199.389734 205.411404 
L 197.596062 204.768 
L 197.596062 197.296941 
L 195.802391 197.568 
L 194.008719 192.901671 
L 194.008719 188.146013 
L 186.834033 188.90786 
L 186.834033 188.157296 
L 185.040362 189.11183 
L 185.040362 186.005956 
L 183.24669 185.360239 
L 181.453019 178.429935 
L 179.659347 177.527008 
L 179.659347 173.494154 
L 177.865676 167.930182 
L 176.072004 162.897231 
L 168.897318 163.304907 
L 167.103646 161.659915 
L 167.103646 158.750609 
L 163.516303 153.182118 
L 163.516303 149.75306 
L 159.92896 152.128 
L 159.92896 150.336 
L 156.341617 152.817231 
L 147.37326 153.792 
L 145.579588 151.058149 
L 145.579588 146.614154 
L 141.992245 149.568 
L 138.404902 152.715541 
L 138.404902 142.696421 
L 129.436544 142.436571 
L 127.642873 141.070979 
L 124.05553 144.96 
L 122.261858 139.968 
L 122.261858 136.174829 
L 115.087172 131.836235 
L 111.499829 131.60671 
L 109.706158 134.208 
L 107.912486 131.328 
L 102.531472 140.6592 
L 97.150457 152.535273 
L 97.150457 145.728 
L 89.975771 159.408 
L 88.182099 146.614154 
L 84.594756 163.531636 
L 81.007413 174.528 
L 77.42007 214.848 
L 73.832727 295.488 
L 73.832727 295.488 
L 73.832727 53.568 
L 73.832727 53.568 
" clip-path="url(#pa87dbd6ae4)" style="fill: none; stroke: #c44e52; stroke-width: 1.5; stroke-linecap: round"/>
   </g>
   <g id="line2d_20">
    <path d="M 314.184711 222.145738 
" clip-path="url(#pa87dbd6ae4)" style="fill: none; stroke: #c44e52; stroke-width: 1.5; stroke-linecap: round"/>
    <defs>
     <path id="m8dc5c04609" d="M 0 3 
C 0.795609 3 1.55874 2.683901 2.12132 2.12132 
C 2.683901 1.55874 3 0.795609 3 0 
C 3 -0.795609 2.683901 -1.55874 2.12132 -2.12132 
C 1.55874 -2.683901 0.795609 -3 0 -3 
C -0.795609 -3 -1.55874 -2.683901 -2.12132 -2.12132 
C -2.683901 -1.55874 -3 -0.795609 -3 0 
C -3 0.795609 -2.683901 1.55874 -2.12132 2.12132 
C -1.55874 2.683901 -0.795609 3 0 3 
z
" style="stroke: #c44e52"/>
    </defs>
    <g clip-path="url(#pa87dbd6ae4)">
     <use xlink:href="#m8dc5c04609" x="314.184711" y="222.145738" style="fill: #c44e52; stroke: #c44e52"/>
    </g>
   </g>
   <g id="line2d_21">
    <path d="M 398.487273 276.980459 
L 386.892468 274.839401 
L 383.027532 274.811077 
L 375.297662 274.887825 
L 375.297662 274.614372 
L 371.432727 274.698 
L 371.432727 274.46335 
L 367.567792 274.594909 
L 367.567792 274.403229 
L 363.702857 274.488 
L 355.972987 274.413823 
L 355.972987 274.261846 
L 344.378182 274.477578 
L 344.378182 274.266947 
L 340.513247 274.142118 
L 340.513247 273.320032 
L 336.648312 273.465831 
L 336.648312 273.406711 
L 328.918442 273.250228 
L 328.918442 273.125647 
L 325.053506 273.151636 
L 325.053506 272.764301 
L 321.188571 272.618162 
L 321.188571 272.275286 
L 317.323636 272.18378 
L 317.323636 271.821913 
L 313.458701 272.052 
L 313.458701 271.755342 
L 309.593766 271.989401 
L 309.593766 271.800809 
L 305.728831 272.038565 
L 305.728831 271.653517 
L 301.863896 271.895802 
L 297.998961 271.786378 
L 297.998961 271.000461 
L 294.134026 270.642162 
L 294.134026 270.461793 
L 290.269091 270.306736 
L 290.269091 269.334486 
L 286.404156 269.035515 
L 286.404156 267.238318 
L 282.539221 267.150299 
L 282.539221 254.917565 
L 278.674286 254.392615 
L 270.944416 253.946182 
L 270.944416 237.290264 
L 267.079481 237.334154 
L 267.079481 235.606812 
L 263.214545 234.384495 
L 263.214545 230.711607 
L 247.754805 233.28 
L 240.024935 232.442182 
L 240.024935 232.057756 
L 232.295065 230.659765 
L 224.565195 231.305143 
L 216.835325 228.186947 
L 212.97039 222.912 
L 205.240519 223.336421 
L 205.240519 217.891019 
L 197.510649 219.591529 
L 197.510649 216.493714 
L 178.185974 221.262545 
L 178.185974 220.409379 
L 154.996364 224.928 
L 151.131429 224.335059 
L 131.806753 222.912 
L 112.482078 235.008 
L 112.482078 228.288 
L 108.617143 222.912 
L 89.292468 214.848 
L 85.427532 174.528 
L 77.697662 174.528 
L 73.832727 53.568 
L 73.832727 53.568 
" clip-path="url(#pa87dbd6ae4)" style="fill: none; stroke: #8172b3; stroke-width: 1.5; stroke-linecap: round"/>
   </g>
   <g id="line2d_22">
    <path d="M 263.214545 230.711607 
" clip-path="url(#pa87dbd6ae4)" style="fill: none; stroke: #8172b3; stroke-width: 1.5; stroke-linecap: round"/>
    <defs>
     <path id="m2242b6068d" d="M 0 3 
C 0.795609 3 1.55874 2.683901 2.12132 2.12132 
C 2.683901 1.55874 3 0.795609 3 0 
C 3 -0.795609 2.683901 -1.55874 2.12132 -2.12132 
C 1.55874 -2.683901 0.795609 -3 0 -3 
C -0.795609 -3 -1.55874 -2.683901 -2.12132 -2.12132 
C -2.683901 -1.55874 -3 -0.795609 -3 0 
C -3 0.795609 -2.683901 1.55874 -2.12132 2.12132 
C -1.55874 2.683901 -0.795609 3 0 3 
z
" style="stroke: #8172b3"/>
    </defs>
    <g clip-path="url(#pa87dbd6ae4)">
     <use xlink:href="#m2242b6068d" x="263.214545" y="230.711607" style="fill: #8172b3; stroke: #8172b3"/>
    </g>
   </g>
   <g id="line2d_23">
    <path d="M 398.487273 282.488656 
L 392.984653 282.626992 
L 392.984653 282.073698 
L 387.482034 282.279724 
L 387.482034 281.03366 
L 381.979414 280.889379 
L 381.979414 279.808 
L 376.476795 280.052269 
L 376.476795 279.944075 
L 376.476795 276.90476 
L 370.974176 277.191529 
L 370.974176 277.140135 
L 370.974176 277.010376 
L 365.471556 277.301106 
L 365.471556 274.468721 
L 359.968937 274.486598 
L 359.968937 273.761161 
L 354.466317 274.030748 
L 354.466317 272.296421 
L 343.461079 273.037091 
L 343.461079 272.951726 
L 343.461079 272.199041 
L 337.958459 272.584331 
L 337.958459 271.933923 
L 326.95322 272.730699 
L 326.95322 271.760239 
L 321.450601 272.076387 
L 321.450601 271.975257 
L 321.450601 270.111776 
L 315.947982 270.559475 
L 315.947982 270.323745 
L 299.440123 271.644923 
L 299.440123 270.936713 
L 288.434884 271.9008 
L 288.434884 271.662545 
L 277.429646 272.536615 
L 266.424407 272.353574 
L 266.424407 269.514994 
L 260.921787 269.943652 
L 260.921787 268.0704 
L 255.419168 268.698201 
L 249.916549 269.156571 
L 244.413929 269.804712 
L 244.413929 269.448 
L 238.91131 268.608 
L 238.91131 267.787237 
L 227.906071 269.233116 
L 222.403451 264.384 
L 211.398213 259.054265 
L 211.398213 241.488 
L 167.377257 250.785391 
L 156.372018 254.251636 
L 156.372018 253.292651 
L 150.869399 255.168 
L 145.36678 256.176 
L 145.36678 247.837091 
L 139.86416 250.128 
L 134.361541 249.606621 
L 123.356302 255.168 
L 123.356302 251.9424 
L 112.351063 245.680941 
L 112.351063 242.568 
L 106.848444 243.648 
L 84.837966 268.608 
L 73.832727 295.488 
L 73.832727 53.568 
L 73.832727 53.568 
" clip-path="url(#pa87dbd6ae4)" style="fill: none; stroke: #937860; stroke-width: 1.5; stroke-linecap: round"/>
   </g>
   <g id="line2d_24">
    <path d="M 211.398213 241.488 
" clip-path="url(#pa87dbd6ae4)" style="fill: none; stroke: #937860; stroke-width: 1.5; stroke-linecap: round"/>
    <defs>
     <path id="mcce6967d6b" d="M 0 3 
C 0.795609 3 1.55874 2.683901 2.12132 2.12132 
C 2.683901 1.55874 3 0.795609 3 0 
C 3 -0.795609 2.683901 -1.55874 2.12132 -2.12132 
C 1.55874 -2.683901 0.795609 -3 0 -3 
C -0.795609 -3 -1.55874 -2.683901 -2.12132 -2.12132 
C -2.683901 -1.55874 -3 -0.795609 -3 0 
C -3 0.795609 -2.683901 1.55874 -2.12132 2.12132 
C -1.55874 2.683901 -0.795609 3 0 3 
z
" style="stroke: #937860"/>
    </defs>
    <g clip-path="url(#pa87dbd6ae4)">
     <use xlink:href="#mcce6967d6b" x="211.398213" y="241.488" style="fill: #937860; stroke: #937860"/>
    </g>
   </g>
   <g id="patch_3">
    <path d="M 57.6 307.584 
L 57.6 41.472 
" style="fill: none; stroke: #cccccc; stroke-width: 1.25; stroke-linejoin: miter; stroke-linecap: square"/>
   </g>
   <g id="patch_4">
    <path d="M 414.72 307.584 
L 414.72 41.472 
" style="fill: none; stroke: #cccccc; stroke-width: 1.25; stroke-linejoin: miter; stroke-linecap: square"/>
   </g>
   <g id="patch_5">
    <path d="M 57.6 307.584 
L 414.72 307.584 
" style="fill: none; stroke: #cccccc; stroke-width: 1.25; stroke-linejoin: miter; stroke-linecap: square"/>
   </g>
   <g id="patch_6">
    <path d="M 57.6 41.472 
L 414.72 41.472 
" style="fill: none; stroke: #cccccc; stroke-width: 1.25; stroke-linejoin: miter; stroke-linecap: square"/>
   </g>
   <g id="text_15">
    <!-- Precision-recall Curve -->
    <g style="fill: #262626" transform="translate(177.478125 35.472) scale(0.12 -0.12)">
     <defs>
      <path id="ArialMT-2d" d="M 203 1375 
L 203 1941 
L 1931 1941 
L 1931 1375 
L 203 1375 
z
" transform="scale(0.015625)"/>
      <path id="ArialMT-20" transform="scale(0.015625)"/>
      <path id="ArialMT-43" d="M 3763 1606 
L 4369 1453 
Q 4178 706 3683 314 
Q 3188 -78 2472 -78 
Q 1731 -78 1267 223 
Q 803 525 561 1097 
Q 319 1669 319 2325 
Q 319 3041 592 3573 
Q 866 4106 1370 4382 
Q 1875 4659 2481 4659 
Q 3169 4659 3637 4309 
Q 4106 3959 4291 3325 
L 3694 3184 
Q 3534 3684 3231 3912 
Q 2928 4141 2469 4141 
Q 1941 4141 1586 3887 
Q 1231 3634 1087 3207 
Q 944 2781 944 2328 
Q 944 1744 1114 1308 
Q 1284 872 1643 656 
Q 2003 441 2422 441 
Q 2931 441 3284 734 
Q 3638 1028 3763 1606 
z
" transform="scale(0.015625)"/>
      <path id="ArialMT-75" d="M 2597 0 
L 2597 488 
Q 2209 -75 1544 -75 
Q 1250 -75 995 37 
Q 741 150 617 320 
Q 494 491 444 738 
Q 409 903 409 1263 
L 409 3319 
L 972 3319 
L 972 1478 
Q 972 1038 1006 884 
Q 1059 663 1231 536 
Q 1403 409 1656 409 
Q 1909 409 2131 539 
Q 2353 669 2445 892 
Q 2538 1116 2538 1541 
L 2538 3319 
L 3100 3319 
L 3100 0 
L 2597 0 
z
" transform="scale(0.015625)"/>
      <path id="ArialMT-76" d="M 1344 0 
L 81 3319 
L 675 3319 
L 1388 1331 
Q 1503 1009 1600 663 
Q 1675 925 1809 1294 
L 2547 3319 
L 3125 3319 
L 1869 0 
L 1344 0 
z
" transform="scale(0.015625)"/>
     </defs>
     <use xlink:href="#ArialMT-50"/>
     <use xlink:href="#ArialMT-72" x="66.699219"/>
     <use xlink:href="#ArialMT-65" x="100"/>
     <use xlink:href="#ArialMT-63" x="155.615234"/>
     <use xlink:href="#ArialMT-69" x="205.615234"/>
     <use xlink:href="#ArialMT-73" x="227.832031"/>
     <use xlink:href="#ArialMT-69" x="277.832031"/>
     <use xlink:href="#ArialMT-6f" x="300.048828"/>
     <use xlink:href="#ArialMT-6e" x="355.664062"/>
     <use xlink:href="#ArialMT-2d" x="411.279297"/>
     <use xlink:href="#ArialMT-72" x="444.580078"/>
     <use xlink:href="#ArialMT-65" x="477.880859"/>
     <use xlink:href="#ArialMT-63" x="533.496094"/>
     <use xlink:href="#ArialMT-61" x="583.496094"/>
     <use xlink:href="#ArialMT-6c" x="639.111328"/>
     <use xlink:href="#ArialMT-6c" x="661.328125"/>
     <use xlink:href="#ArialMT-20" x="683.544922"/>
     <use xlink:href="#ArialMT-43" x="711.328125"/>
     <use xlink:href="#ArialMT-75" x="783.544922"/>
     <use xlink:href="#ArialMT-72" x="839.160156"/>
     <use xlink:href="#ArialMT-76" x="872.460938"/>
     <use xlink:href="#ArialMT-65" x="922.460938"/>
    </g>
   </g>
   <g id="legend_1">
    <g id="patch_7">
     <path d="M 65.3 302.084 
L 224.03 302.084 
Q 226.23 302.084 226.23 299.884 
L 226.23 188.624 
Q 226.23 186.424 224.03 186.424 
L 65.3 186.424 
Q 63.1 186.424 63.1 188.624 
L 63.1 299.884 
Q 63.1 302.084 65.3 302.084 
z
" style="fill: #ffffff; opacity: 0.8; stroke: #cccccc; stroke-linejoin: miter"/>
    </g>
    <g id="text_16">
     <!-- $\delta_{threshold}$ -->
     <g style="fill: #262626" transform="translate(120.905 199.599) scale(0.12 -0.12)">
      <defs>
       <path id="DejaVuSans-Oblique-3b4" d="M 3472 4053 
Q 3197 4272 2450 4272 
Q 1659 4272 1588 3906 
Q 1531 3619 2328 3469 
Q 2953 3353 3253 3003 
Q 3616 2581 3447 1716 
Q 3284 888 2763 400 
Q 2238 -91 1488 -91 
Q 741 -91 406 400 
Q 72 888 241 1747 
Q 363 2384 891 2900 
Q 1097 3100 1353 3213 
Q 913 3459 1000 3900 
Q 1166 4750 2544 4750 
Q 3234 4750 3566 4531 
L 3472 4053 
z
M 1753 3056 
Q 1525 2966 1306 2738 
Q 969 2384 847 1747 
Q 722 1113 919 756 
Q 1119 397 1584 397 
Q 2044 397 2381 759 
Q 2722 1122 2838 1716 
Q 2956 2338 2731 2638 
Q 2491 2959 2103 2994 
Q 1906 3013 1753 3056 
z
" transform="scale(0.015625)"/>
       <path id="DejaVuSans-Oblique-74" d="M 2706 3500 
L 2619 3053 
L 1472 3053 
L 1100 1153 
Q 1081 1047 1072 975 
Q 1063 903 1063 863 
Q 1063 663 1183 572 
Q 1303 481 1569 481 
L 2150 481 
L 2053 0 
L 1503 0 
Q 991 0 739 200 
Q 488 400 488 806 
Q 488 878 497 964 
Q 506 1050 525 1153 
L 897 3053 
L 409 3053 
L 500 3500 
L 978 3500 
L 1172 4494 
L 1747 4494 
L 1556 3500 
L 2706 3500 
z
" transform="scale(0.015625)"/>
       <path id="DejaVuSans-Oblique-68" d="M 3566 2113 
L 3156 0 
L 2578 0 
L 2988 2091 
Q 3016 2238 3031 2350 
Q 3047 2463 3047 2528 
Q 3047 2791 2881 2937 
Q 2716 3084 2419 3084 
Q 1956 3084 1617 2771 
Q 1278 2459 1178 1941 
L 800 0 
L 225 0 
L 1172 4863 
L 1747 4863 
L 1375 2950 
Q 1594 3244 1934 3414 
Q 2275 3584 2650 3584 
Q 3113 3584 3367 3334 
Q 3622 3084 3622 2631 
Q 3622 2519 3608 2391 
Q 3594 2263 3566 2113 
z
" transform="scale(0.015625)"/>
       <path id="DejaVuSans-Oblique-72" d="M 2853 2969 
Q 2766 3016 2653 3041 
Q 2541 3066 2413 3066 
Q 1953 3066 1609 2717 
Q 1266 2369 1153 1784 
L 800 0 
L 225 0 
L 909 3500 
L 1484 3500 
L 1375 2956 
Q 1603 3259 1920 3421 
Q 2238 3584 2597 3584 
Q 2691 3584 2781 3573 
Q 2872 3563 2963 3538 
L 2853 2969 
z
" transform="scale(0.015625)"/>
       <path id="DejaVuSans-Oblique-65" d="M 3078 2063 
Q 3088 2113 3092 2166 
Q 3097 2219 3097 2272 
Q 3097 2653 2873 2875 
Q 2650 3097 2266 3097 
Q 1838 3097 1509 2826 
Q 1181 2556 1013 2059 
L 3078 2063 
z
M 3578 1613 
L 903 1613 
Q 884 1494 878 1425 
Q 872 1356 872 1306 
Q 872 872 1139 634 
Q 1406 397 1894 397 
Q 2269 397 2603 481 
Q 2938 566 3225 728 
L 3116 159 
Q 2806 34 2476 -28 
Q 2147 -91 1806 -91 
Q 1078 -91 686 257 
Q 294 606 294 1247 
Q 294 1794 489 2264 
Q 684 2734 1063 3103 
Q 1306 3334 1642 3459 
Q 1978 3584 2356 3584 
Q 2950 3584 3301 3228 
Q 3653 2872 3653 2272 
Q 3653 2128 3634 1964 
Q 3616 1800 3578 1613 
z
" transform="scale(0.015625)"/>
       <path id="DejaVuSans-Oblique-73" d="M 3200 3397 
L 3091 2853 
Q 2863 2978 2609 3040 
Q 2356 3103 2088 3103 
Q 1634 3103 1373 2948 
Q 1113 2794 1113 2528 
Q 1113 2219 1719 2053 
Q 1766 2041 1788 2034 
L 1972 1978 
Q 2547 1819 2739 1644 
Q 2931 1469 2931 1166 
Q 2931 609 2489 259 
Q 2047 -91 1331 -91 
Q 1053 -91 747 -37 
Q 441 16 72 128 
L 184 722 
Q 500 559 806 475 
Q 1113 391 1394 391 
Q 1816 391 2080 572 
Q 2344 753 2344 1031 
Q 2344 1331 1650 1516 
L 1591 1531 
L 1394 1581 
Q 956 1697 753 1886 
Q 550 2075 550 2369 
Q 550 2928 970 3256 
Q 1391 3584 2113 3584 
Q 2397 3584 2667 3537 
Q 2938 3491 3200 3397 
z
" transform="scale(0.015625)"/>
       <path id="DejaVuSans-Oblique-6f" d="M 1625 -91 
Q 1009 -91 651 289 
Q 294 669 294 1325 
Q 294 1706 417 2101 
Q 541 2497 738 2766 
Q 1047 3184 1428 3384 
Q 1809 3584 2291 3584 
Q 2888 3584 3255 3212 
Q 3622 2841 3622 2241 
Q 3622 1825 3500 1412 
Q 3378 1000 3181 728 
Q 2875 309 2494 109 
Q 2113 -91 1625 -91 
z
M 891 1344 
Q 891 869 1089 633 
Q 1288 397 1691 397 
Q 2269 397 2648 901 
Q 3028 1406 3028 2181 
Q 3028 2634 2825 2865 
Q 2622 3097 2228 3097 
Q 1903 3097 1650 2945 
Q 1397 2794 1197 2484 
Q 1050 2253 970 1956 
Q 891 1659 891 1344 
z
" transform="scale(0.015625)"/>
       <path id="DejaVuSans-Oblique-6c" d="M 1172 4863 
L 1747 4863 
L 800 0 
L 225 0 
L 1172 4863 
z
" transform="scale(0.015625)"/>
       <path id="DejaVuSans-Oblique-64" d="M 2675 525 
Q 2444 222 2128 65 
Q 1813 -91 1428 -91 
Q 903 -91 598 267 
Q 294 625 294 1247 
Q 294 1766 478 2236 
Q 663 2706 1013 3078 
Q 1244 3325 1534 3454 
Q 1825 3584 2144 3584 
Q 2481 3584 2739 3421 
Q 2997 3259 3138 2956 
L 3513 4863 
L 4091 4863 
L 3144 0 
L 2566 0 
L 2675 525 
z
M 891 1350 
Q 891 897 1095 644 
Q 1300 391 1663 391 
Q 1931 391 2161 520 
Q 2391 650 2566 903 
Q 2750 1166 2856 1509 
Q 2963 1853 2963 2188 
Q 2963 2622 2758 2865 
Q 2553 3109 2194 3109 
Q 1922 3109 1687 2981 
Q 1453 2853 1288 2613 
Q 1106 2353 998 2009 
Q 891 1666 891 1350 
z
" transform="scale(0.015625)"/>
      </defs>
      <use xlink:href="#DejaVuSans-Oblique-3b4" transform="translate(0 0.78125)"/>
      <use xlink:href="#DejaVuSans-Oblique-74" transform="translate(61.181641 -15.625) scale(0.7)"/>
      <use xlink:href="#DejaVuSans-Oblique-68" transform="translate(88.62793 -15.625) scale(0.7)"/>
      <use xlink:href="#DejaVuSans-Oblique-72" transform="translate(132.993164 -15.625) scale(0.7)"/>
      <use xlink:href="#DejaVuSans-Oblique-65" transform="translate(161.772461 -15.625) scale(0.7)"/>
      <use xlink:href="#DejaVuSans-Oblique-73" transform="translate(204.838867 -15.625) scale(0.7)"/>
      <use xlink:href="#DejaVuSans-Oblique-68" transform="translate(241.308594 -15.625) scale(0.7)"/>
      <use xlink:href="#DejaVuSans-Oblique-6f" transform="translate(285.673828 -15.625) scale(0.7)"/>
      <use xlink:href="#DejaVuSans-Oblique-6c" transform="translate(328.500977 -15.625) scale(0.7)"/>
      <use xlink:href="#DejaVuSans-Oblique-64" transform="translate(347.949219 -15.625) scale(0.7)"/>
     </g>
    </g>
    <g id="line2d_25">
     <path d="M 67.5 211.664 
L 78.5 211.664 
L 89.5 211.664 
" style="fill: none; stroke: #4c72b0; stroke-width: 1.5; stroke-linecap: round"/>
    </g>
    <g id="text_17">
     <!-- 2.0$\sigma$ (AUCPR = 0.99) -->
     <g style="fill: #262626" transform="translate(98.3 215.514) scale(0.11 -0.11)">
      <defs>
       <path id="DejaVuSans-Oblique-3c3" d="M 2219 3044 
Q 1744 3044 1422 2700 
Q 1081 2341 969 1747 
Q 844 1119 1044 756 
Q 1241 397 1706 397 
Q 2166 397 2503 759 
Q 2844 1122 2966 1747 
Q 3075 2319 2881 2700 
Q 2700 3044 2219 3044 
z
M 2309 3503 
L 4219 3500 
L 4106 2925 
L 3463 2925 
Q 3706 2438 3575 1747 
Q 3406 888 2884 400 
Q 2359 -91 1609 -91 
Q 856 -91 525 400 
Q 194 888 363 1747 
Q 528 2609 1050 3097 
Q 1484 3503 2309 3503 
z
" transform="scale(0.015625)"/>
       <path id="ArialMT-28" d="M 1497 -1347 
Q 1031 -759 709 28 
Q 388 816 388 1659 
Q 388 2403 628 3084 
Q 909 3875 1497 4659 
L 1900 4659 
Q 1522 4009 1400 3731 
Q 1209 3300 1100 2831 
Q 966 2247 966 1656 
Q 966 153 1900 -1347 
L 1497 -1347 
z
" transform="scale(0.015625)"/>
       <path id="ArialMT-41" d="M -9 0 
L 1750 4581 
L 2403 4581 
L 4278 0 
L 3588 0 
L 3053 1388 
L 1138 1388 
L 634 0 
L -9 0 
z
M 1313 1881 
L 2866 1881 
L 2388 3150 
Q 2169 3728 2063 4100 
Q 1975 3659 1816 3225 
L 1313 1881 
z
" transform="scale(0.015625)"/>
       <path id="ArialMT-55" d="M 3500 4581 
L 4106 4581 
L 4106 1934 
Q 4106 1244 3950 837 
Q 3794 431 3386 176 
Q 2978 -78 2316 -78 
Q 1672 -78 1262 144 
Q 853 366 678 786 
Q 503 1206 503 1934 
L 503 4581 
L 1109 4581 
L 1109 1938 
Q 1109 1341 1220 1058 
Q 1331 775 1601 622 
Q 1872 469 2263 469 
Q 2931 469 3215 772 
Q 3500 1075 3500 1938 
L 3500 4581 
z
" transform="scale(0.015625)"/>
       <path id="ArialMT-3d" d="M 3381 2694 
L 356 2694 
L 356 3219 
L 3381 3219 
L 3381 2694 
z
M 3381 1303 
L 356 1303 
L 356 1828 
L 3381 1828 
L 3381 1303 
z
" transform="scale(0.015625)"/>
       <path id="ArialMT-39" d="M 350 1059 
L 891 1109 
Q 959 728 1153 556 
Q 1347 384 1650 384 
Q 1909 384 2104 503 
Q 2300 622 2425 820 
Q 2550 1019 2634 1356 
Q 2719 1694 2719 2044 
Q 2719 2081 2716 2156 
Q 2547 1888 2255 1720 
Q 1963 1553 1622 1553 
Q 1053 1553 659 1965 
Q 266 2378 266 3053 
Q 266 3750 677 4175 
Q 1088 4600 1706 4600 
Q 2153 4600 2523 4359 
Q 2894 4119 3086 3673 
Q 3278 3228 3278 2384 
Q 3278 1506 3087 986 
Q 2897 466 2520 194 
Q 2144 -78 1638 -78 
Q 1100 -78 759 220 
Q 419 519 350 1059 
z
M 2653 3081 
Q 2653 3566 2395 3850 
Q 2138 4134 1775 4134 
Q 1400 4134 1122 3828 
Q 844 3522 844 3034 
Q 844 2597 1108 2323 
Q 1372 2050 1759 2050 
Q 2150 2050 2401 2323 
Q 2653 2597 2653 3081 
z
" transform="scale(0.015625)"/>
       <path id="ArialMT-29" d="M 791 -1347 
L 388 -1347 
Q 1322 153 1322 1656 
Q 1322 2244 1188 2822 
Q 1081 3291 891 3722 
Q 769 4003 388 4659 
L 791 4659 
Q 1378 3875 1659 3084 
Q 1900 2403 1900 1659 
Q 1900 816 1576 28 
Q 1253 -759 791 -1347 
z
" transform="scale(0.015625)"/>
      </defs>
      <use xlink:href="#ArialMT-32" transform="translate(0 0.203125)"/>
      <use xlink:href="#ArialMT-2e" transform="translate(55.615234 0.203125)"/>
      <use xlink:href="#ArialMT-30" transform="translate(83.398438 0.203125)"/>
      <use xlink:href="#DejaVuSans-Oblique-3c3" transform="translate(139.013672 0.203125)"/>
      <use xlink:href="#ArialMT-20" transform="translate(202.392578 0.203125)"/>
      <use xlink:href="#ArialMT-28" transform="translate(230.175781 0.203125)"/>
      <use xlink:href="#ArialMT-41" transform="translate(263.476562 0.203125)"/>
      <use xlink:href="#ArialMT-55" transform="translate(330.175781 0.203125)"/>
      <use xlink:href="#ArialMT-43" transform="translate(402.392578 0.203125)"/>
      <use xlink:href="#ArialMT-50" transform="translate(474.609375 0.203125)"/>
      <use xlink:href="#ArialMT-52" transform="translate(541.308594 0.203125)"/>
      <use xlink:href="#ArialMT-20" transform="translate(613.525391 0.203125)"/>
      <use xlink:href="#ArialMT-3d" transform="translate(641.308594 0.203125)"/>
      <use xlink:href="#ArialMT-20" transform="translate(699.707031 0.203125)"/>
      <use xlink:href="#ArialMT-30" transform="translate(727.490234 0.203125)"/>
      <use xlink:href="#ArialMT-2e" transform="translate(783.105469 0.203125)"/>
      <use xlink:href="#ArialMT-39" transform="translate(810.888672 0.203125)"/>
      <use xlink:href="#ArialMT-39" transform="translate(866.503906 0.203125)"/>
      <use xlink:href="#ArialMT-29" transform="translate(922.119141 0.203125)"/>
     </g>
    </g>
    <g id="line2d_26">
     <path d="M 67.5 227.614 
L 78.5 227.614 
L 89.5 227.614 
" style="fill: none; stroke: #dd8452; stroke-width: 1.5; stroke-linecap: round"/>
    </g>
    <g id="text_18">
     <!-- 1.0$\sigma$ (AUCPR = 0.92) -->
     <g style="fill: #262626" transform="translate(98.3 231.464) scale(0.11 -0.11)">
      <use xlink:href="#ArialMT-31" transform="translate(0 0.203125)"/>
      <use xlink:href="#ArialMT-2e" transform="translate(55.615234 0.203125)"/>
      <use xlink:href="#ArialMT-30" transform="translate(83.398438 0.203125)"/>
      <use xlink:href="#DejaVuSans-Oblique-3c3" transform="translate(139.013672 0.203125)"/>
      <use xlink:href="#ArialMT-20" transform="translate(202.392578 0.203125)"/>
      <use xlink:href="#ArialMT-28" transform="translate(230.175781 0.203125)"/>
      <use xlink:href="#ArialMT-41" transform="translate(263.476562 0.203125)"/>
      <use xlink:href="#ArialMT-55" transform="translate(330.175781 0.203125)"/>
      <use xlink:href="#ArialMT-43" transform="translate(402.392578 0.203125)"/>
      <use xlink:href="#ArialMT-50" transform="translate(474.609375 0.203125)"/>
      <use xlink:href="#ArialMT-52" transform="translate(541.308594 0.203125)"/>
      <use xlink:href="#ArialMT-20" transform="translate(613.525391 0.203125)"/>
      <use xlink:href="#ArialMT-3d" transform="translate(641.308594 0.203125)"/>
      <use xlink:href="#ArialMT-20" transform="translate(699.707031 0.203125)"/>
      <use xlink:href="#ArialMT-30" transform="translate(727.490234 0.203125)"/>
      <use xlink:href="#ArialMT-2e" transform="translate(783.105469 0.203125)"/>
      <use xlink:href="#ArialMT-39" transform="translate(810.888672 0.203125)"/>
      <use xlink:href="#ArialMT-32" transform="translate(866.503906 0.203125)"/>
      <use xlink:href="#ArialMT-29" transform="translate(922.119141 0.203125)"/>
     </g>
    </g>
    <g id="line2d_27">
     <path d="M 67.5 243.564 
L 78.5 243.564 
L 89.5 243.564 
" style="fill: none; stroke: #55a868; stroke-width: 1.5; stroke-linecap: round"/>
    </g>
    <g id="text_19">
     <!-- 0.5$\sigma$ (AUCPR = 0.68) -->
     <g style="fill: #262626" transform="translate(98.3 247.414) scale(0.11 -0.11)">
      <defs>
       <path id="ArialMT-35" d="M 266 1200 
L 856 1250 
Q 922 819 1161 601 
Q 1400 384 1738 384 
Q 2144 384 2425 690 
Q 2706 997 2706 1503 
Q 2706 1984 2436 2262 
Q 2166 2541 1728 2541 
Q 1456 2541 1237 2417 
Q 1019 2294 894 2097 
L 366 2166 
L 809 4519 
L 3088 4519 
L 3088 3981 
L 1259 3981 
L 1013 2750 
Q 1425 3038 1878 3038 
Q 2478 3038 2890 2622 
Q 3303 2206 3303 1553 
Q 3303 931 2941 478 
Q 2500 -78 1738 -78 
Q 1113 -78 717 272 
Q 322 622 266 1200 
z
" transform="scale(0.015625)"/>
      </defs>
      <use xlink:href="#ArialMT-30" transform="translate(0 0.203125)"/>
      <use xlink:href="#ArialMT-2e" transform="translate(55.615234 0.203125)"/>
      <use xlink:href="#ArialMT-35" transform="translate(83.398438 0.203125)"/>
      <use xlink:href="#DejaVuSans-Oblique-3c3" transform="translate(139.013672 0.203125)"/>
      <use xlink:href="#ArialMT-20" transform="translate(202.392578 0.203125)"/>
      <use xlink:href="#ArialMT-28" transform="translate(230.175781 0.203125)"/>
      <use xlink:href="#ArialMT-41" transform="translate(263.476562 0.203125)"/>
      <use xlink:href="#ArialMT-55" transform="translate(330.175781 0.203125)"/>
      <use xlink:href="#ArialMT-43" transform="translate(402.392578 0.203125)"/>
      <use xlink:href="#ArialMT-50" transform="translate(474.609375 0.203125)"/>
      <use xlink:href="#ArialMT-52" transform="translate(541.308594 0.203125)"/>
      <use xlink:href="#ArialMT-20" transform="translate(613.525391 0.203125)"/>
      <use xlink:href="#ArialMT-3d" transform="translate(641.308594 0.203125)"/>
      <use xlink:href="#ArialMT-20" transform="translate(699.707031 0.203125)"/>
      <use xlink:href="#ArialMT-30" transform="translate(727.490234 0.203125)"/>
      <use xlink:href="#ArialMT-2e" transform="translate(783.105469 0.203125)"/>
      <use xlink:href="#ArialMT-36" transform="translate(810.888672 0.203125)"/>
      <use xlink:href="#ArialMT-38" transform="translate(866.503906 0.203125)"/>
      <use xlink:href="#ArialMT-29" transform="translate(922.119141 0.203125)"/>
     </g>
    </g>
    <g id="line2d_28">
     <path d="M 67.5 259.514 
L 78.5 259.514 
L 89.5 259.514 
" style="fill: none; stroke: #c44e52; stroke-width: 1.5; stroke-linecap: round"/>
    </g>
    <g id="text_20">
     <!-- 0.25$\sigma$ (AUCPR = 0.39) -->
     <g style="fill: #262626" transform="translate(98.3 263.364) scale(0.11 -0.11)">
      <defs>
       <path id="ArialMT-33" d="M 269 1209 
L 831 1284 
Q 928 806 1161 595 
Q 1394 384 1728 384 
Q 2125 384 2398 659 
Q 2672 934 2672 1341 
Q 2672 1728 2419 1979 
Q 2166 2231 1775 2231 
Q 1616 2231 1378 2169 
L 1441 2663 
Q 1497 2656 1531 2656 
Q 1891 2656 2178 2843 
Q 2466 3031 2466 3422 
Q 2466 3731 2256 3934 
Q 2047 4138 1716 4138 
Q 1388 4138 1169 3931 
Q 950 3725 888 3313 
L 325 3413 
Q 428 3978 793 4289 
Q 1159 4600 1703 4600 
Q 2078 4600 2393 4439 
Q 2709 4278 2876 4000 
Q 3044 3722 3044 3409 
Q 3044 3113 2884 2869 
Q 2725 2625 2413 2481 
Q 2819 2388 3044 2092 
Q 3269 1797 3269 1353 
Q 3269 753 2831 336 
Q 2394 -81 1725 -81 
Q 1122 -81 723 278 
Q 325 638 269 1209 
z
" transform="scale(0.015625)"/>
      </defs>
      <use xlink:href="#ArialMT-30" transform="translate(0 0.203125)"/>
      <use xlink:href="#ArialMT-2e" transform="translate(55.615234 0.203125)"/>
      <use xlink:href="#ArialMT-32" transform="translate(83.398438 0.203125)"/>
      <use xlink:href="#ArialMT-35" transform="translate(139.013672 0.203125)"/>
      <use xlink:href="#DejaVuSans-Oblique-3c3" transform="translate(194.628906 0.203125)"/>
      <use xlink:href="#ArialMT-20" transform="translate(258.007812 0.203125)"/>
      <use xlink:href="#ArialMT-28" transform="translate(285.791016 0.203125)"/>
      <use xlink:href="#ArialMT-41" transform="translate(319.091797 0.203125)"/>
      <use xlink:href="#ArialMT-55" transform="translate(385.791016 0.203125)"/>
      <use xlink:href="#ArialMT-43" transform="translate(458.007812 0.203125)"/>
      <use xlink:href="#ArialMT-50" transform="translate(530.224609 0.203125)"/>
      <use xlink:href="#ArialMT-52" transform="translate(596.923828 0.203125)"/>
      <use xlink:href="#ArialMT-20" transform="translate(669.140625 0.203125)"/>
      <use xlink:href="#ArialMT-3d" transform="translate(696.923828 0.203125)"/>
      <use xlink:href="#ArialMT-20" transform="translate(755.322266 0.203125)"/>
      <use xlink:href="#ArialMT-30" transform="translate(783.105469 0.203125)"/>
      <use xlink:href="#ArialMT-2e" transform="translate(838.720703 0.203125)"/>
      <use xlink:href="#ArialMT-33" transform="translate(866.503906 0.203125)"/>
      <use xlink:href="#ArialMT-39" transform="translate(922.119141 0.203125)"/>
      <use xlink:href="#ArialMT-29" transform="translate(977.734375 0.203125)"/>
     </g>
    </g>
    <g id="line2d_29">
     <path d="M 67.5 275.464 
L 78.5 275.464 
L 89.5 275.464 
" style="fill: none; stroke: #8172b3; stroke-width: 1.5; stroke-linecap: round"/>
    </g>
    <g id="text_21">
     <!-- 0.125$\sigma$ (AUCPR = 0.22) -->
     <g style="fill: #262626" transform="translate(98.3 279.314) scale(0.11 -0.11)">
      <use xlink:href="#ArialMT-30" transform="translate(0 0.203125)"/>
      <use xlink:href="#ArialMT-2e" transform="translate(55.615234 0.203125)"/>
      <use xlink:href="#ArialMT-31" transform="translate(83.398438 0.203125)"/>
      <use xlink:href="#ArialMT-32" transform="translate(139.013672 0.203125)"/>
      <use xlink:href="#ArialMT-35" transform="translate(194.628906 0.203125)"/>
      <use xlink:href="#DejaVuSans-Oblique-3c3" transform="translate(250.244141 0.203125)"/>
      <use xlink:href="#ArialMT-20" transform="translate(313.623047 0.203125)"/>
      <use xlink:href="#ArialMT-28" transform="translate(341.40625 0.203125)"/>
      <use xlink:href="#ArialMT-41" transform="translate(374.707031 0.203125)"/>
      <use xlink:href="#ArialMT-55" transform="translate(441.40625 0.203125)"/>
      <use xlink:href="#ArialMT-43" transform="translate(513.623047 0.203125)"/>
      <use xlink:href="#ArialMT-50" transform="translate(585.839844 0.203125)"/>
      <use xlink:href="#ArialMT-52" transform="translate(652.539062 0.203125)"/>
      <use xlink:href="#ArialMT-20" transform="translate(724.755859 0.203125)"/>
      <use xlink:href="#ArialMT-3d" transform="translate(752.539062 0.203125)"/>
      <use xlink:href="#ArialMT-20" transform="translate(810.9375 0.203125)"/>
      <use xlink:href="#ArialMT-30" transform="translate(838.720703 0.203125)"/>
      <use xlink:href="#ArialMT-2e" transform="translate(894.335938 0.203125)"/>
      <use xlink:href="#ArialMT-32" transform="translate(922.119141 0.203125)"/>
      <use xlink:href="#ArialMT-32" transform="translate(977.734375 0.203125)"/>
      <use xlink:href="#ArialMT-29" transform="translate(1033.349609 0.203125)"/>
     </g>
    </g>
    <g id="line2d_30">
     <path d="M 67.5 291.414 
L 78.5 291.414 
L 89.5 291.414 
" style="fill: none; stroke: #937860; stroke-width: 1.5; stroke-linecap: round"/>
    </g>
    <g id="text_22">
     <!-- 0.0625$\sigma$ (AUCPR = 0.14) -->
     <g style="fill: #262626" transform="translate(98.3 295.264) scale(0.11 -0.11)">
      <use xlink:href="#ArialMT-30" transform="translate(0 0.203125)"/>
      <use xlink:href="#ArialMT-2e" transform="translate(55.615234 0.203125)"/>
      <use xlink:href="#ArialMT-30" transform="translate(83.398438 0.203125)"/>
      <use xlink:href="#ArialMT-36" transform="translate(139.013672 0.203125)"/>
      <use xlink:href="#ArialMT-32" transform="translate(194.628906 0.203125)"/>
      <use xlink:href="#ArialMT-35" transform="translate(250.244141 0.203125)"/>
      <use xlink:href="#DejaVuSans-Oblique-3c3" transform="translate(305.859375 0.203125)"/>
      <use xlink:href="#ArialMT-20" transform="translate(369.238281 0.203125)"/>
      <use xlink:href="#ArialMT-28" transform="translate(397.021484 0.203125)"/>
      <use xlink:href="#ArialMT-41" transform="translate(430.322266 0.203125)"/>
      <use xlink:href="#ArialMT-55" transform="translate(497.021484 0.203125)"/>
      <use xlink:href="#ArialMT-43" transform="translate(569.238281 0.203125)"/>
      <use xlink:href="#ArialMT-50" transform="translate(641.455078 0.203125)"/>
      <use xlink:href="#ArialMT-52" transform="translate(708.154297 0.203125)"/>
      <use xlink:href="#ArialMT-20" transform="translate(780.371094 0.203125)"/>
      <use xlink:href="#ArialMT-3d" transform="translate(808.154297 0.203125)"/>
      <use xlink:href="#ArialMT-20" transform="translate(866.552734 0.203125)"/>
      <use xlink:href="#ArialMT-30" transform="translate(894.335938 0.203125)"/>
      <use xlink:href="#ArialMT-2e" transform="translate(949.951172 0.203125)"/>
      <use xlink:href="#ArialMT-31" transform="translate(977.734375 0.203125)"/>
      <use xlink:href="#ArialMT-34" transform="translate(1033.349609 0.203125)"/>
      <use xlink:href="#ArialMT-29" transform="translate(1088.964844 0.203125)"/>
     </g>
    </g>
   </g>
  </g>
 </g>
 <defs>
  <clipPath id="pa87dbd6ae4">
   <rect x="57.6" y="41.472" width="357.12" height="266.112"/>
  </clipPath>
 </defs>
</svg>
