<?xml version="1.0" encoding="utf-8" standalone="no"?>
<!DOCTYPE svg PUBLIC "-//W3C//DTD SVG 1.1//EN"
  "http://www.w3.org/Graphics/SVG/1.1/DTD/svg11.dtd">
<svg xmlns:xlink="http://www.w3.org/1999/xlink" width="460.8pt" height="345.6pt" viewBox="0 0 460.8 345.6" xmlns="http://www.w3.org/2000/svg" version="1.1">
 <metadata>
  <rdf:RDF xmlns:dc="http://purl.org/dc/elements/1.1/" xmlns:cc="http://creativecommons.org/ns#" xmlns:rdf="http://www.w3.org/1999/02/22-rdf-syntax-ns#">
   <cc:Work>
    <dc:type rdf:resource="http://purl.org/dc/dcmitype/StillImage"/>
    <dc:date>2023-12-14T09:07:10.693004</dc:date>
    <dc:format>image/svg+xml</dc:format>
    <dc:creator>
     <cc:Agent>
      <dc:title>Matplotlib v3.8.2, https://matplotlib.org/</dc:title>
     </cc:Agent>
    </dc:creator>
   </cc:Work>
  </rdf:RDF>
 </metadata>
 <defs>
  <style type="text/css">*{stroke-linejoin: round; stroke-linecap: butt}</style>
 </defs>
 <g id="figure_1">
  <g id="patch_1">
   <path d="M 0 345.6 
L 460.8 345.6 
L 460.8 0 
L 0 0 
z
" style="fill: #ffffff"/>
  </g>
  <g id="axes_1">
   <g id="patch_2">
    <path d="M 57.6 307.584 
L 414.72 307.584 
L 414.72 41.472 
L 57.6 41.472 
z
" style="fill: #ffffff"/>
   </g>
   <g id="matplotlib.axis_1">
    <g id="xtick_1">
     <g id="line2d_1">
      <path d="M 73.832727 307.584 
L 73.832727 41.472 
" clip-path="url(#pa4447f8b6f)" style="fill: none; stroke: #cccccc; stroke-linecap: round"/>
     </g>
     <g id="text_1">
      <!-- 0.0 -->
      <g style="fill: #262626" transform="translate(66.187727 324.957594) scale(0.11 -0.11)">
       <defs>
        <path id="ArialMT-30" d="M 266 2259 
Q 266 3072 433 3567 
Q 600 4063 929 4331 
Q 1259 4600 1759 4600 
Q 2128 4600 2406 4451 
Q 2684 4303 2865 4023 
Q 3047 3744 3150 3342 
Q 3253 2941 3253 2259 
Q 3253 1453 3087 958 
Q 2922 463 2592 192 
Q 2263 -78 1759 -78 
Q 1097 -78 719 397 
Q 266 969 266 2259 
z
M 844 2259 
Q 844 1131 1108 757 
Q 1372 384 1759 384 
Q 2147 384 2411 759 
Q 2675 1134 2675 2259 
Q 2675 3391 2411 3762 
Q 2147 4134 1753 4134 
Q 1366 4134 1134 3806 
Q 844 3388 844 2259 
z
" transform="scale(0.015625)"/>
        <path id="ArialMT-2e" d="M 581 0 
L 581 641 
L 1222 641 
L 1222 0 
L 581 0 
z
" transform="scale(0.015625)"/>
       </defs>
       <use xlink:href="#ArialMT-30"/>
       <use xlink:href="#ArialMT-2e" x="55.615234"/>
       <use xlink:href="#ArialMT-30" x="83.398438"/>
      </g>
     </g>
    </g>
    <g id="xtick_2">
     <g id="line2d_2">
      <path d="M 138.763636 307.584 
L 138.763636 41.472 
" clip-path="url(#pa4447f8b6f)" style="fill: none; stroke: #cccccc; stroke-linecap: round"/>
     </g>
     <g id="text_2">
      <!-- 0.2 -->
      <g style="fill: #262626" transform="translate(131.118636 324.957594) scale(0.11 -0.11)">
       <defs>
        <path id="ArialMT-32" d="M 3222 541 
L 3222 0 
L 194 0 
Q 188 203 259 391 
Q 375 700 629 1000 
Q 884 1300 1366 1694 
Q 2113 2306 2375 2664 
Q 2638 3022 2638 3341 
Q 2638 3675 2398 3904 
Q 2159 4134 1775 4134 
Q 1369 4134 1125 3890 
Q 881 3647 878 3216 
L 300 3275 
Q 359 3922 746 4261 
Q 1134 4600 1788 4600 
Q 2447 4600 2831 4234 
Q 3216 3869 3216 3328 
Q 3216 3053 3103 2787 
Q 2991 2522 2730 2228 
Q 2469 1934 1863 1422 
Q 1356 997 1212 845 
Q 1069 694 975 541 
L 3222 541 
z
" transform="scale(0.015625)"/>
       </defs>
       <use xlink:href="#ArialMT-30"/>
       <use xlink:href="#ArialMT-2e" x="55.615234"/>
       <use xlink:href="#ArialMT-32" x="83.398438"/>
      </g>
     </g>
    </g>
    <g id="xtick_3">
     <g id="line2d_3">
      <path d="M 203.694545 307.584 
L 203.694545 41.472 
" clip-path="url(#pa4447f8b6f)" style="fill: none; stroke: #cccccc; stroke-linecap: round"/>
     </g>
     <g id="text_3">
      <!-- 0.4 -->
      <g style="fill: #262626" transform="translate(196.049545 324.957594) scale(0.11 -0.11)">
       <defs>
        <path id="ArialMT-34" d="M 2069 0 
L 2069 1097 
L 81 1097 
L 81 1613 
L 2172 4581 
L 2631 4581 
L 2631 1613 
L 3250 1613 
L 3250 1097 
L 2631 1097 
L 2631 0 
L 2069 0 
z
M 2069 1613 
L 2069 3678 
L 634 1613 
L 2069 1613 
z
" transform="scale(0.015625)"/>
       </defs>
       <use xlink:href="#ArialMT-30"/>
       <use xlink:href="#ArialMT-2e" x="55.615234"/>
       <use xlink:href="#ArialMT-34" x="83.398438"/>
      </g>
     </g>
    </g>
    <g id="xtick_4">
     <g id="line2d_4">
      <path d="M 268.625455 307.584 
L 268.625455 41.472 
" clip-path="url(#pa4447f8b6f)" style="fill: none; stroke: #cccccc; stroke-linecap: round"/>
     </g>
     <g id="text_4">
      <!-- 0.6 -->
      <g style="fill: #262626" transform="translate(260.980455 324.957594) scale(0.11 -0.11)">
       <defs>
        <path id="ArialMT-36" d="M 3184 3459 
L 2625 3416 
Q 2550 3747 2413 3897 
Q 2184 4138 1850 4138 
Q 1581 4138 1378 3988 
Q 1113 3794 959 3422 
Q 806 3050 800 2363 
Q 1003 2672 1297 2822 
Q 1591 2972 1913 2972 
Q 2475 2972 2870 2558 
Q 3266 2144 3266 1488 
Q 3266 1056 3080 686 
Q 2894 316 2569 119 
Q 2244 -78 1831 -78 
Q 1128 -78 684 439 
Q 241 956 241 2144 
Q 241 3472 731 4075 
Q 1159 4600 1884 4600 
Q 2425 4600 2770 4297 
Q 3116 3994 3184 3459 
z
M 888 1484 
Q 888 1194 1011 928 
Q 1134 663 1356 523 
Q 1578 384 1822 384 
Q 2178 384 2434 671 
Q 2691 959 2691 1453 
Q 2691 1928 2437 2201 
Q 2184 2475 1800 2475 
Q 1419 2475 1153 2201 
Q 888 1928 888 1484 
z
" transform="scale(0.015625)"/>
       </defs>
       <use xlink:href="#ArialMT-30"/>
       <use xlink:href="#ArialMT-2e" x="55.615234"/>
       <use xlink:href="#ArialMT-36" x="83.398438"/>
      </g>
     </g>
    </g>
    <g id="xtick_5">
     <g id="line2d_5">
      <path d="M 333.556364 307.584 
L 333.556364 41.472 
" clip-path="url(#pa4447f8b6f)" style="fill: none; stroke: #cccccc; stroke-linecap: round"/>
     </g>
     <g id="text_5">
      <!-- 0.8 -->
      <g style="fill: #262626" transform="translate(325.911364 324.957594) scale(0.11 -0.11)">
       <defs>
        <path id="ArialMT-38" d="M 1131 2484 
Q 781 2613 612 2850 
Q 444 3088 444 3419 
Q 444 3919 803 4259 
Q 1163 4600 1759 4600 
Q 2359 4600 2725 4251 
Q 3091 3903 3091 3403 
Q 3091 3084 2923 2848 
Q 2756 2613 2416 2484 
Q 2838 2347 3058 2040 
Q 3278 1734 3278 1309 
Q 3278 722 2862 322 
Q 2447 -78 1769 -78 
Q 1091 -78 675 323 
Q 259 725 259 1325 
Q 259 1772 486 2073 
Q 713 2375 1131 2484 
z
M 1019 3438 
Q 1019 3113 1228 2906 
Q 1438 2700 1772 2700 
Q 2097 2700 2305 2904 
Q 2513 3109 2513 3406 
Q 2513 3716 2298 3927 
Q 2084 4138 1766 4138 
Q 1444 4138 1231 3931 
Q 1019 3725 1019 3438 
z
M 838 1322 
Q 838 1081 952 856 
Q 1066 631 1291 507 
Q 1516 384 1775 384 
Q 2178 384 2440 643 
Q 2703 903 2703 1303 
Q 2703 1709 2433 1975 
Q 2163 2241 1756 2241 
Q 1359 2241 1098 1978 
Q 838 1716 838 1322 
z
" transform="scale(0.015625)"/>
       </defs>
       <use xlink:href="#ArialMT-30"/>
       <use xlink:href="#ArialMT-2e" x="55.615234"/>
       <use xlink:href="#ArialMT-38" x="83.398438"/>
      </g>
     </g>
    </g>
    <g id="xtick_6">
     <g id="line2d_6">
      <path d="M 398.487273 307.584 
L 398.487273 41.472 
" clip-path="url(#pa4447f8b6f)" style="fill: none; stroke: #cccccc; stroke-linecap: round"/>
     </g>
     <g id="text_6">
      <!-- 1.0 -->
      <g style="fill: #262626" transform="translate(390.842273 324.957594) scale(0.11 -0.11)">
       <defs>
        <path id="ArialMT-31" d="M 2384 0 
L 1822 0 
L 1822 3584 
Q 1619 3391 1289 3197 
Q 959 3003 697 2906 
L 697 3450 
Q 1169 3672 1522 3987 
Q 1875 4303 2022 4600 
L 2384 4600 
L 2384 0 
z
" transform="scale(0.015625)"/>
       </defs>
       <use xlink:href="#ArialMT-31"/>
       <use xlink:href="#ArialMT-2e" x="55.615234"/>
       <use xlink:href="#ArialMT-30" x="83.398438"/>
      </g>
     </g>
    </g>
    <g id="text_7">
     <!-- False Positive Rate -->
     <g style="fill: #262626" transform="translate(184.47375 339.733219) scale(0.12 -0.12)">
      <defs>
       <path id="ArialMT-46" d="M 525 0 
L 525 4581 
L 3616 4581 
L 3616 4041 
L 1131 4041 
L 1131 2622 
L 3281 2622 
L 3281 2081 
L 1131 2081 
L 1131 0 
L 525 0 
z
" transform="scale(0.015625)"/>
       <path id="ArialMT-61" d="M 2588 409 
Q 2275 144 1986 34 
Q 1697 -75 1366 -75 
Q 819 -75 525 192 
Q 231 459 231 875 
Q 231 1119 342 1320 
Q 453 1522 633 1644 
Q 813 1766 1038 1828 
Q 1203 1872 1538 1913 
Q 2219 1994 2541 2106 
Q 2544 2222 2544 2253 
Q 2544 2597 2384 2738 
Q 2169 2928 1744 2928 
Q 1347 2928 1158 2789 
Q 969 2650 878 2297 
L 328 2372 
Q 403 2725 575 2942 
Q 747 3159 1072 3276 
Q 1397 3394 1825 3394 
Q 2250 3394 2515 3294 
Q 2781 3194 2906 3042 
Q 3031 2891 3081 2659 
Q 3109 2516 3109 2141 
L 3109 1391 
Q 3109 606 3145 398 
Q 3181 191 3288 0 
L 2700 0 
Q 2613 175 2588 409 
z
M 2541 1666 
Q 2234 1541 1622 1453 
Q 1275 1403 1131 1340 
Q 988 1278 909 1158 
Q 831 1038 831 891 
Q 831 666 1001 516 
Q 1172 366 1500 366 
Q 1825 366 2078 508 
Q 2331 650 2450 897 
Q 2541 1088 2541 1459 
L 2541 1666 
z
" transform="scale(0.015625)"/>
       <path id="ArialMT-6c" d="M 409 0 
L 409 4581 
L 972 4581 
L 972 0 
L 409 0 
z
" transform="scale(0.015625)"/>
       <path id="ArialMT-73" d="M 197 991 
L 753 1078 
Q 800 744 1014 566 
Q 1228 388 1613 388 
Q 2000 388 2187 545 
Q 2375 703 2375 916 
Q 2375 1106 2209 1216 
Q 2094 1291 1634 1406 
Q 1016 1563 777 1677 
Q 538 1791 414 1992 
Q 291 2194 291 2438 
Q 291 2659 392 2848 
Q 494 3038 669 3163 
Q 800 3259 1026 3326 
Q 1253 3394 1513 3394 
Q 1903 3394 2198 3281 
Q 2494 3169 2634 2976 
Q 2775 2784 2828 2463 
L 2278 2388 
Q 2241 2644 2061 2787 
Q 1881 2931 1553 2931 
Q 1166 2931 1000 2803 
Q 834 2675 834 2503 
Q 834 2394 903 2306 
Q 972 2216 1119 2156 
Q 1203 2125 1616 2013 
Q 2213 1853 2448 1751 
Q 2684 1650 2818 1456 
Q 2953 1263 2953 975 
Q 2953 694 2789 445 
Q 2625 197 2315 61 
Q 2006 -75 1616 -75 
Q 969 -75 630 194 
Q 291 463 197 991 
z
" transform="scale(0.015625)"/>
       <path id="ArialMT-65" d="M 2694 1069 
L 3275 997 
Q 3138 488 2766 206 
Q 2394 -75 1816 -75 
Q 1088 -75 661 373 
Q 234 822 234 1631 
Q 234 2469 665 2931 
Q 1097 3394 1784 3394 
Q 2450 3394 2872 2941 
Q 3294 2488 3294 1666 
Q 3294 1616 3291 1516 
L 816 1516 
Q 847 969 1125 678 
Q 1403 388 1819 388 
Q 2128 388 2347 550 
Q 2566 713 2694 1069 
z
M 847 1978 
L 2700 1978 
Q 2663 2397 2488 2606 
Q 2219 2931 1791 2931 
Q 1403 2931 1139 2672 
Q 875 2413 847 1978 
z
" transform="scale(0.015625)"/>
       <path id="ArialMT-20" transform="scale(0.015625)"/>
       <path id="ArialMT-50" d="M 494 0 
L 494 4581 
L 2222 4581 
Q 2678 4581 2919 4538 
Q 3256 4481 3484 4323 
Q 3713 4166 3852 3881 
Q 3991 3597 3991 3256 
Q 3991 2672 3619 2267 
Q 3247 1863 2275 1863 
L 1100 1863 
L 1100 0 
L 494 0 
z
M 1100 2403 
L 2284 2403 
Q 2872 2403 3119 2622 
Q 3366 2841 3366 3238 
Q 3366 3525 3220 3729 
Q 3075 3934 2838 4000 
Q 2684 4041 2272 4041 
L 1100 4041 
L 1100 2403 
z
" transform="scale(0.015625)"/>
       <path id="ArialMT-6f" d="M 213 1659 
Q 213 2581 725 3025 
Q 1153 3394 1769 3394 
Q 2453 3394 2887 2945 
Q 3322 2497 3322 1706 
Q 3322 1066 3130 698 
Q 2938 331 2570 128 
Q 2203 -75 1769 -75 
Q 1072 -75 642 372 
Q 213 819 213 1659 
z
M 791 1659 
Q 791 1022 1069 705 
Q 1347 388 1769 388 
Q 2188 388 2466 706 
Q 2744 1025 2744 1678 
Q 2744 2294 2464 2611 
Q 2184 2928 1769 2928 
Q 1347 2928 1069 2612 
Q 791 2297 791 1659 
z
" transform="scale(0.015625)"/>
       <path id="ArialMT-69" d="M 425 3934 
L 425 4581 
L 988 4581 
L 988 3934 
L 425 3934 
z
M 425 0 
L 425 3319 
L 988 3319 
L 988 0 
L 425 0 
z
" transform="scale(0.015625)"/>
       <path id="ArialMT-74" d="M 1650 503 
L 1731 6 
Q 1494 -44 1306 -44 
Q 1000 -44 831 53 
Q 663 150 594 308 
Q 525 466 525 972 
L 525 2881 
L 113 2881 
L 113 3319 
L 525 3319 
L 525 4141 
L 1084 4478 
L 1084 3319 
L 1650 3319 
L 1650 2881 
L 1084 2881 
L 1084 941 
Q 1084 700 1114 631 
Q 1144 563 1211 522 
Q 1278 481 1403 481 
Q 1497 481 1650 503 
z
" transform="scale(0.015625)"/>
       <path id="ArialMT-76" d="M 1344 0 
L 81 3319 
L 675 3319 
L 1388 1331 
Q 1503 1009 1600 663 
Q 1675 925 1809 1294 
L 2547 3319 
L 3125 3319 
L 1869 0 
L 1344 0 
z
" transform="scale(0.015625)"/>
       <path id="ArialMT-52" d="M 503 0 
L 503 4581 
L 2534 4581 
Q 3147 4581 3465 4457 
Q 3784 4334 3975 4021 
Q 4166 3709 4166 3331 
Q 4166 2844 3850 2509 
Q 3534 2175 2875 2084 
Q 3116 1969 3241 1856 
Q 3506 1613 3744 1247 
L 4541 0 
L 3778 0 
L 3172 953 
Q 2906 1366 2734 1584 
Q 2563 1803 2427 1890 
Q 2291 1978 2150 2013 
Q 2047 2034 1813 2034 
L 1109 2034 
L 1109 0 
L 503 0 
z
M 1109 2559 
L 2413 2559 
Q 2828 2559 3062 2645 
Q 3297 2731 3419 2920 
Q 3541 3109 3541 3331 
Q 3541 3656 3305 3865 
Q 3069 4075 2559 4075 
L 1109 4075 
L 1109 2559 
z
" transform="scale(0.015625)"/>
      </defs>
      <use xlink:href="#ArialMT-46"/>
      <use xlink:href="#ArialMT-61" x="61.083984"/>
      <use xlink:href="#ArialMT-6c" x="116.699219"/>
      <use xlink:href="#ArialMT-73" x="138.916016"/>
      <use xlink:href="#ArialMT-65" x="188.916016"/>
      <use xlink:href="#ArialMT-20" x="244.53125"/>
      <use xlink:href="#ArialMT-50" x="272.314453"/>
      <use xlink:href="#ArialMT-6f" x="339.013672"/>
      <use xlink:href="#ArialMT-73" x="394.628906"/>
      <use xlink:href="#ArialMT-69" x="444.628906"/>
      <use xlink:href="#ArialMT-74" x="466.845703"/>
      <use xlink:href="#ArialMT-69" x="494.628906"/>
      <use xlink:href="#ArialMT-76" x="516.845703"/>
      <use xlink:href="#ArialMT-65" x="566.845703"/>
      <use xlink:href="#ArialMT-20" x="622.460938"/>
      <use xlink:href="#ArialMT-52" x="650.244141"/>
      <use xlink:href="#ArialMT-61" x="722.460938"/>
      <use xlink:href="#ArialMT-74" x="778.076172"/>
      <use xlink:href="#ArialMT-65" x="805.859375"/>
     </g>
    </g>
   </g>
   <g id="matplotlib.axis_2">
    <g id="ytick_1">
     <g id="line2d_7">
      <path d="M 57.6 295.488 
L 414.72 295.488 
" clip-path="url(#pa4447f8b6f)" style="fill: none; stroke: #cccccc; stroke-linecap: round"/>
     </g>
     <g id="text_8">
      <!-- 0.0 -->
      <g style="fill: #262626" transform="translate(32.81 299.424797) scale(0.11 -0.11)">
       <use xlink:href="#ArialMT-30"/>
       <use xlink:href="#ArialMT-2e" x="55.615234"/>
       <use xlink:href="#ArialMT-30" x="83.398438"/>
      </g>
     </g>
    </g>
    <g id="ytick_2">
     <g id="line2d_8">
      <path d="M 57.6 247.104 
L 414.72 247.104 
" clip-path="url(#pa4447f8b6f)" style="fill: none; stroke: #cccccc; stroke-linecap: round"/>
     </g>
     <g id="text_9">
      <!-- 0.2 -->
      <g style="fill: #262626" transform="translate(32.81 251.040797) scale(0.11 -0.11)">
       <use xlink:href="#ArialMT-30"/>
       <use xlink:href="#ArialMT-2e" x="55.615234"/>
       <use xlink:href="#ArialMT-32" x="83.398438"/>
      </g>
     </g>
    </g>
    <g id="ytick_3">
     <g id="line2d_9">
      <path d="M 57.6 198.72 
L 414.72 198.72 
" clip-path="url(#pa4447f8b6f)" style="fill: none; stroke: #cccccc; stroke-linecap: round"/>
     </g>
     <g id="text_10">
      <!-- 0.4 -->
      <g style="fill: #262626" transform="translate(32.81 202.656797) scale(0.11 -0.11)">
       <use xlink:href="#ArialMT-30"/>
       <use xlink:href="#ArialMT-2e" x="55.615234"/>
       <use xlink:href="#ArialMT-34" x="83.398438"/>
      </g>
     </g>
    </g>
    <g id="ytick_4">
     <g id="line2d_10">
      <path d="M 57.6 150.336 
L 414.72 150.336 
" clip-path="url(#pa4447f8b6f)" style="fill: none; stroke: #cccccc; stroke-linecap: round"/>
     </g>
     <g id="text_11">
      <!-- 0.6 -->
      <g style="fill: #262626" transform="translate(32.81 154.272797) scale(0.11 -0.11)">
       <use xlink:href="#ArialMT-30"/>
       <use xlink:href="#ArialMT-2e" x="55.615234"/>
       <use xlink:href="#ArialMT-36" x="83.398438"/>
      </g>
     </g>
    </g>
    <g id="ytick_5">
     <g id="line2d_11">
      <path d="M 57.6 101.952 
L 414.72 101.952 
" clip-path="url(#pa4447f8b6f)" style="fill: none; stroke: #cccccc; stroke-linecap: round"/>
     </g>
     <g id="text_12">
      <!-- 0.8 -->
      <g style="fill: #262626" transform="translate(32.81 105.888797) scale(0.11 -0.11)">
       <use xlink:href="#ArialMT-30"/>
       <use xlink:href="#ArialMT-2e" x="55.615234"/>
       <use xlink:href="#ArialMT-38" x="83.398438"/>
      </g>
     </g>
    </g>
    <g id="ytick_6">
     <g id="line2d_12">
      <path d="M 57.6 53.568 
L 414.72 53.568 
" clip-path="url(#pa4447f8b6f)" style="fill: none; stroke: #cccccc; stroke-linecap: round"/>
     </g>
     <g id="text_13">
      <!-- 1.0 -->
      <g style="fill: #262626" transform="translate(32.81 57.504797) scale(0.11 -0.11)">
       <use xlink:href="#ArialMT-31"/>
       <use xlink:href="#ArialMT-2e" x="55.615234"/>
       <use xlink:href="#ArialMT-30" x="83.398438"/>
      </g>
     </g>
    </g>
    <g id="text_14">
     <!-- True Positive Rate -->
     <g style="fill: #262626" transform="translate(26.425 223.653937) rotate(-90) scale(0.12 -0.12)">
      <defs>
       <path id="ArialMT-54" d="M 1659 0 
L 1659 4041 
L 150 4041 
L 150 4581 
L 3781 4581 
L 3781 4041 
L 2266 4041 
L 2266 0 
L 1659 0 
z
" transform="scale(0.015625)"/>
       <path id="ArialMT-72" d="M 416 0 
L 416 3319 
L 922 3319 
L 922 2816 
Q 1116 3169 1280 3281 
Q 1444 3394 1641 3394 
Q 1925 3394 2219 3213 
L 2025 2691 
Q 1819 2813 1613 2813 
Q 1428 2813 1281 2702 
Q 1134 2591 1072 2394 
Q 978 2094 978 1738 
L 978 0 
L 416 0 
z
" transform="scale(0.015625)"/>
       <path id="ArialMT-75" d="M 2597 0 
L 2597 488 
Q 2209 -75 1544 -75 
Q 1250 -75 995 37 
Q 741 150 617 320 
Q 494 491 444 738 
Q 409 903 409 1263 
L 409 3319 
L 972 3319 
L 972 1478 
Q 972 1038 1006 884 
Q 1059 663 1231 536 
Q 1403 409 1656 409 
Q 1909 409 2131 539 
Q 2353 669 2445 892 
Q 2538 1116 2538 1541 
L 2538 3319 
L 3100 3319 
L 3100 0 
L 2597 0 
z
" transform="scale(0.015625)"/>
      </defs>
      <use xlink:href="#ArialMT-54"/>
      <use xlink:href="#ArialMT-72" x="57.333984"/>
      <use xlink:href="#ArialMT-75" x="90.634766"/>
      <use xlink:href="#ArialMT-65" x="146.25"/>
      <use xlink:href="#ArialMT-20" x="201.865234"/>
      <use xlink:href="#ArialMT-50" x="229.648438"/>
      <use xlink:href="#ArialMT-6f" x="296.347656"/>
      <use xlink:href="#ArialMT-73" x="351.962891"/>
      <use xlink:href="#ArialMT-69" x="401.962891"/>
      <use xlink:href="#ArialMT-74" x="424.179688"/>
      <use xlink:href="#ArialMT-69" x="451.962891"/>
      <use xlink:href="#ArialMT-76" x="474.179688"/>
      <use xlink:href="#ArialMT-65" x="524.179688"/>
      <use xlink:href="#ArialMT-20" x="579.794922"/>
      <use xlink:href="#ArialMT-52" x="607.578125"/>
      <use xlink:href="#ArialMT-61" x="679.794922"/>
      <use xlink:href="#ArialMT-74" x="735.410156"/>
      <use xlink:href="#ArialMT-65" x="763.193359"/>
     </g>
    </g>
   </g>
   <g id="line2d_13">
    <path d="M 73.832727 295.488 
L 73.832727 166.887184 
L 78.537866 166.41698 
L 78.537866 165.241469 
L 78.537866 164.771265 
L 78.537866 161.479837 
L 78.537866 161.244735 
L 83.243004 160.539429 
L 83.243004 160.069224 
L 83.243004 159.834122 
L 83.243004 159.363918 
L 83.243004 157.248 
L 83.243004 155.602286 
L 83.243004 149.724735 
L 83.243004 149.019429 
L 102.063557 145.022694 
L 139.704664 140.085551 
L 139.704664 122.452898 
L 139.704664 120.807184 
L 139.704664 120.101878 
L 149.114941 118.456163 
L 149.114941 116.810449 
L 149.114941 113.048816 
L 149.114941 112.34351 
L 153.820079 112.108408 
L 163.230356 104.114939 
L 163.230356 101.763918 
L 186.756047 87.657796 
L 200.871462 82.955755 
L 205.576601 82.720653 
L 224.397154 75.197388 
L 233.807431 74.021878 
L 233.807431 71.905959 
L 280.858814 67.674122 
L 309.089644 65.323102 
L 309.089644 63.207184 
L 365.551304 59.445551 
L 398.487273 54.273306 
L 398.487273 53.568 
" clip-path="url(#pa4447f8b6f)" style="fill: none; stroke: #4c72b0; stroke-width: 1.5; stroke-linecap: round"/>
   </g>
   <g id="line2d_14">
    <path d="M 73.832727 295.488 
L 73.832727 294.844596 
L 74.771035 294.522894 
L 74.771035 282.619915 
L 75.709343 281.654809 
L 75.709343 281.011404 
L 76.647651 280.689702 
L 76.647651 267.821617 
L 77.585959 267.499915 
L 77.585959 263.639489 
L 78.524267 262.674383 
L 78.524267 260.74417 
L 80.400883 259.457362 
L 80.400883 259.13566 
L 81.339191 258.813957 
L 81.339191 257.848851 
L 83.215807 256.24034 
L 83.215807 255.275234 
L 84.154115 253.666723 
L 84.154115 247.554383 
L 85.092422 247.232681 
L 85.092422 242.728851 
L 86.03073 242.407149 
L 86.03073 210.88034 
L 86.969038 210.558638 
L 86.969038 201.550979 
L 87.907346 201.229277 
L 87.907346 199.620766 
L 89.783962 198.977362 
L 90.72227 198.012255 
L 91.660578 198.012255 
L 91.660578 195.116936 
L 92.598886 193.830128 
L 92.598886 193.186723 
L 93.537194 192.543319 
L 93.537194 191.899915 
L 94.475502 190.291404 
L 94.475502 186.752681 
L 95.41381 186.752681 
L 96.352118 186.109277 
L 98.228734 185.465872 
L 98.228734 184.822468 
L 99.167042 184.500766 
L 100.105349 184.500766 
L 100.105349 175.814809 
L 101.043657 175.171404 
L 101.043657 172.597787 
L 101.981965 171.954383 
L 102.920273 170.345872 
L 102.920273 166.163745 
L 103.858581 164.876936 
L 104.796889 164.233532 
L 104.796889 159.086298 
L 105.735197 157.477787 
L 105.735197 155.225872 
L 106.673505 154.582468 
L 106.673505 143.966298 
L 107.611813 143.322894 
L 107.611813 142.679489 
L 108.550121 142.357787 
L 108.550121 141.392681 
L 109.488429 140.749277 
L 109.488429 136.888851 
L 110.426737 136.567149 
L 110.426737 135.28034 
L 111.365045 134.636936 
L 111.365045 133.028426 
L 113.241661 131.741617 
L 115.118276 131.098213 
L 116.056584 130.454809 
L 116.056584 128.202894 
L 116.994892 127.559489 
L 116.994892 124.985872 
L 117.9332 124.342468 
L 117.9332 124.020766 
L 118.871508 123.377362 
L 118.871508 122.090553 
L 120.748124 121.447149 
L 121.686432 121.447149 
L 121.686432 120.803745 
L 122.62474 120.16034 
L 122.62474 119.195234 
L 123.563048 118.873532 
L 123.563048 109.222468 
L 124.501356 108.579064 
L 124.501356 107.93566 
L 125.439664 107.292255 
L 125.439664 106.327149 
L 126.377972 106.005447 
L 126.377972 105.04034 
L 127.31628 104.396936 
L 127.31628 100.858213 
L 128.254587 100.858213 
L 129.192895 100.214809 
L 129.192895 93.780766 
L 130.131203 93.459064 
L 131.069511 92.81566 
L 131.069511 92.172255 
L 132.007819 91.207149 
L 132.007819 86.703319 
L 132.946127 86.381617 
L 134.822743 86.381617 
L 134.822743 83.486298 
L 135.761051 82.842894 
L 135.761051 80.269277 
L 136.699359 79.625872 
L 136.699359 77.69566 
L 139.514283 76.730553 
L 140.452591 76.730553 
L 140.452591 74.156936 
L 142.329207 73.513532 
L 142.329207 73.19183 
L 143.267514 72.870128 
L 143.267514 71.905021 
L 147.020746 71.905021 
L 147.959054 71.583319 
L 147.959054 71.261617 
L 148.897362 70.296511 
L 149.83567 69.653106 
L 150.773978 69.331404 
L 150.773978 68.044596 
L 153.588902 68.044596 
L 155.465518 67.401191 
L 159.218749 67.079489 
L 160.157057 66.436085 
L 160.157057 66.114383 
L 161.095365 65.792681 
L 162.033673 65.792681 
L 162.033673 65.470979 
L 163.910289 65.470979 
L 166.725213 64.827574 
L 167.663521 64.18417 
L 168.601829 63.862468 
L 172.35506 63.862468 
L 172.35506 63.540766 
L 176.108292 63.219064 
L 178.923216 63.219064 
L 181.73814 62.253957 
L 192.997835 62.253957 
L 196.751067 61.610553 
L 204.25753 61.610553 
L 212.702302 60.645447 
L 225.838613 60.645447 
L 225.838613 60.323745 
L 230.530152 60.002043 
L 230.530152 59.68034 
L 233.345076 59.68034 
L 234.283384 59.358638 
L 247.419695 59.358638 
L 247.419695 59.036936 
L 251.172927 59.036936 
L 252.111235 58.715234 
L 272.754009 58.715234 
L 273.692317 58.393532 
L 284.013705 58.393532 
L 284.013705 58.07183 
L 291.520168 58.07183 
L 291.520168 57.750128 
L 299.026632 57.750128 
L 301.841555 57.428426 
L 316.854482 57.428426 
L 316.854482 57.106723 
L 321.546022 57.106723 
L 321.546022 56.785021 
L 322.48433 56.785021 
L 323.422638 56.463319 
L 333.744025 56.463319 
L 334.682333 56.141617 
L 338.435565 56.141617 
L 338.435565 55.819915 
L 343.127105 55.819915 
L 343.127105 55.498213 
L 394.734041 55.498213 
L 395.672349 55.176511 
L 395.672349 54.211404 
L 397.548965 54.211404 
L 398.487273 53.889702 
L 398.487273 53.568 
L 398.487273 53.568 
" clip-path="url(#pa4447f8b6f)" style="fill: none; stroke: #dd8452; stroke-width: 1.5; stroke-linecap: round"/>
   </g>
   <g id="line2d_15">
    <path d="M 73.832727 295.488 
L 74.318737 294.925395 
L 74.318737 291.549767 
L 74.804747 290.987163 
L 74.804747 289.861953 
L 75.776766 289.299349 
L 75.776766 288.736744 
L 76.748786 288.17414 
L 77.720806 288.17414 
L 78.692825 287.04893 
L 78.692825 285.923721 
L 80.150855 284.235907 
L 81.608884 283.110698 
L 82.094894 281.985488 
L 83.552923 279.73507 
L 85.010953 278.047256 
L 86.468982 272.983814 
L 86.954992 271.858605 
L 87.441002 271.296 
L 87.927011 267.920372 
L 87.927011 266.795163 
L 88.413021 265.669953 
L 89.385041 263.98214 
L 89.871051 263.419535 
L 90.35706 260.606512 
L 90.35706 259.481302 
L 90.84307 257.230884 
L 91.32908 256.105674 
L 92.3011 254.41786 
L 92.787109 253.292651 
L 92.787109 252.167442 
L 93.273119 248.791814 
L 93.273119 246.541395 
L 93.759129 245.416186 
L 93.759129 243.728372 
L 94.245139 243.165767 
L 94.245139 240.915349 
L 94.731149 240.352744 
L 94.731149 234.726698 
L 95.217158 233.038884 
L 95.703168 232.476279 
L 95.703168 229.663256 
L 96.189178 227.412837 
L 97.161198 225.725023 
L 98.133217 223.474605 
L 98.133217 222.349395 
L 99.105237 220.661581 
L 99.105237 219.536372 
L 99.591247 216.160744 
L 100.077256 213.910326 
L 100.077256 208.846884 
L 101.049276 207.15907 
L 101.049276 199.845209 
L 101.535286 198.157395 
L 102.021296 197.594791 
L 102.507305 195.344372 
L 103.965335 194.781767 
L 103.965335 194.219163 
L 104.937354 194.219163 
L 105.909374 190.843535 
L 106.881394 189.155721 
L 107.853413 189.155721 
L 107.853413 188.030512 
L 108.339423 188.030512 
L 109.311443 184.654884 
L 110.283462 182.96707 
L 113.685531 181.279256 
L 114.65755 179.591442 
L 114.65755 171.152372 
L 115.62957 169.464558 
L 116.11558 168.339349 
L 116.11558 166.08893 
L 116.60159 166.08893 
L 116.60159 164.963721 
L 117.087599 159.900279 
L 117.573609 158.77507 
L 117.573609 154.836837 
L 118.545629 153.711628 
L 119.517648 152.023814 
L 119.517648 150.336 
L 120.489668 148.648186 
L 120.489668 148.085581 
L 122.433707 145.835163 
L 122.919717 145.835163 
L 122.919717 144.709953 
L 123.891737 143.02214 
L 125.349766 142.459535 
L 125.349766 141.89693 
L 125.835776 140.209116 
L 127.779815 137.958698 
L 128.751835 137.958698 
L 128.751835 136.270884 
L 132.153903 134.58307 
L 132.153903 134.020465 
L 133.125923 132.332651 
L 134.097942 130.082233 
L 134.097942 128.394419 
L 134.583952 126.706605 
L 134.583952 125.581395 
L 137.500011 125.581395 
L 137.500011 125.018791 
L 138.95804 125.018791 
L 138.95804 124.456186 
L 139.93006 122.768372 
L 140.41607 122.768372 
L 140.41607 120.517953 
L 140.902079 119.392744 
L 142.360109 119.392744 
L 143.332128 117.70493 
L 143.818138 116.017116 
L 144.304148 116.017116 
L 144.790158 114.329302 
L 144.790158 113.204093 
L 146.248187 108.140651 
L 146.734197 108.140651 
L 147.706217 107.015442 
L 150.136266 105.890233 
L 150.622275 105.890233 
L 151.594295 104.202419 
L 152.080305 102.514605 
L 152.566315 102.514605 
L 154.996364 99.701581 
L 157.426413 99.701581 
L 157.426413 96.888558 
L 157.912422 95.763349 
L 158.884442 95.200744 
L 158.884442 94.075535 
L 159.856462 94.075535 
L 160.342471 92.387721 
L 160.828481 91.825116 
L 163.74454 91.825116 
L 165.202569 90.699907 
L 167.146609 90.137302 
L 169.576658 90.137302 
L 170.548677 89.574698 
L 171.520697 89.574698 
L 171.520697 85.07386 
L 172.978726 85.07386 
L 172.978726 84.511256 
L 178.324834 84.511256 
L 178.810844 83.948651 
L 185.614981 83.948651 
L 187.55902 81.698233 
L 193.877148 81.698233 
L 193.877148 79.447814 
L 194.849167 79.447814 
L 196.793206 78.885209 
L 205.541383 78.885209 
L 208.457441 78.322605 
L 209.429461 78.322605 
L 210.401481 77.76 
L 217.205618 77.76 
L 218.177637 77.197395 
L 223.523745 77.197395 
L 224.009755 76.634791 
L 226.925814 76.634791 
L 226.925814 72.133953 
L 234.215961 72.133953 
L 235.18798 71.571349 
L 236.64601 70.44614 
L 237.13202 69.883535 
L 240.048078 69.883535 
L 241.506108 69.32093 
L 242.964137 69.32093 
L 242.964137 68.758326 
L 244.422167 67.070512 
L 249.282265 67.070512 
L 250.254284 65.945302 
L 252.684333 65.945302 
L 253.170343 65.382698 
L 258.030441 65.382698 
L 259.002461 64.257488 
L 279.414872 64.257488 
L 280.386892 63.694884 
L 282.330931 63.694884 
L 283.30295 63.132279 
L 285.24699 63.132279 
L 286.219009 62.569674 
L 311.977529 62.569674 
L 311.977529 62.00707 
L 313.435558 62.00707 
L 314.407578 61.444465 
L 318.295656 61.444465 
L 318.781666 60.88186 
L 338.708068 60.88186 
L 339.194077 60.319256 
L 341.624126 60.319256 
L 342.596146 59.756651 
L 352.802352 59.756651 
L 353.774371 58.631442 
L 357.66245 58.631442 
L 359.120479 58.068837 
L 360.092499 57.506233 
L 360.578508 56.943628 
L 366.896636 56.943628 
L 367.868655 54.693209 
L 373.700773 54.693209 
L 374.186783 54.130605 
L 376.130822 54.130605 
L 398.487273 53.568 
L 398.487273 53.568 
" clip-path="url(#pa4447f8b6f)" style="fill: none; stroke: #55a868; stroke-width: 1.5; stroke-linecap: round"/>
   </g>
   <g id="line2d_16">
    <path d="M 73.832727 295.488 
L 75.248887 295.488 
L 75.248887 290.141702 
L 75.602927 287.468552 
L 75.602927 284.795403 
L 76.311006 283.458829 
L 76.665046 278.11253 
L 77.019086 278.11253 
L 77.019086 270.093083 
L 77.373126 268.756508 
L 77.373126 267.419934 
L 77.727166 264.746785 
L 78.789285 259.400486 
L 79.143325 259.400486 
L 79.851405 258.063912 
L 79.851405 255.390762 
L 80.205445 254.054188 
L 81.267564 247.371315 
L 82.683724 247.371315 
L 82.683724 242.025017 
L 83.391803 242.025017 
L 84.099883 240.688442 
L 85.162003 234.005569 
L 85.162003 231.33242 
L 85.516042 231.33242 
L 85.516042 228.659271 
L 86.224122 228.659271 
L 87.994321 225.986122 
L 88.702401 225.986122 
L 89.410481 224.649547 
L 90.4726 219.303249 
L 92.2428 217.966674 
L 94.367039 216.630099 
L 95.783198 216.630099 
L 96.491278 215.293525 
L 99.677637 213.95695 
L 100.385716 212.620376 
L 101.801876 212.620376 
L 101.801876 211.283801 
L 102.155916 211.283801 
L 103.572075 205.937503 
L 106.050354 205.937503 
L 109.236713 204.600928 
L 109.590752 203.264354 
L 114.54731 203.264354 
L 115.60943 201.927779 
L 119.149828 201.927779 
L 119.857908 199.25463 
L 121.274068 199.25463 
L 121.274068 197.918055 
L 122.690227 197.918055 
L 122.690227 196.581481 
L 124.106386 193.908331 
L 125.522546 193.908331 
L 126.230626 192.571757 
L 127.292745 192.571757 
L 127.292745 191.235182 
L 127.646785 191.235182 
L 127.646785 189.898608 
L 128.000825 189.898608 
L 128.000825 188.562033 
L 128.354865 188.562033 
L 128.708905 185.888884 
L 128.708905 184.552309 
L 130.125064 184.552309 
L 130.125064 180.542586 
L 133.665462 180.542586 
L 133.665462 179.206011 
L 134.727582 179.206011 
L 134.727582 177.869436 
L 135.435662 176.532862 
L 137.913941 176.532862 
L 140.03818 173.859713 
L 140.03818 172.523138 
L 140.39222 172.523138 
L 140.39222 171.186564 
L 141.808379 171.186564 
L 142.516459 169.849989 
L 142.870499 169.849989 
L 142.870499 167.17684 
L 143.578578 165.840265 
L 144.286658 165.840265 
L 144.994738 164.503691 
L 144.994738 163.167116 
L 146.410897 163.167116 
L 147.118977 161.830541 
L 148.535136 161.830541 
L 148.535136 159.157392 
L 149.243216 157.820818 
L 149.597256 157.820818 
L 149.597256 156.484243 
L 154.199774 156.484243 
L 154.907854 155.147669 
L 155.969973 155.147669 
L 156.678053 153.811094 
L 156.678053 149.80137 
L 162.69673 149.80137 
L 162.69673 145.791646 
L 163.40481 145.791646 
L 163.40481 144.455072 
L 164.11289 144.455072 
L 164.82097 143.118497 
L 164.82097 141.781923 
L 166.591169 141.781923 
L 167.299249 140.445348 
L 167.299249 139.108773 
L 170.839647 132.425901 
L 172.609846 132.425901 
L 172.609846 131.089326 
L 175.796205 131.089326 
L 176.504285 129.752751 
L 176.504285 125.743028 
L 177.212364 124.406453 
L 177.566404 124.406453 
L 178.274484 123.069878 
L 179.336604 123.069878 
L 180.044683 121.733304 
L 180.752763 121.733304 
L 181.460843 120.396729 
L 181.460843 119.060155 
L 182.877002 116.387006 
L 185.001241 116.387006 
L 186.417401 115.050431 
L 189.957799 115.050431 
L 190.311839 113.713856 
L 190.665879 113.713856 
L 191.727998 112.377282 
L 198.100716 112.377282 
L 198.808795 111.040707 
L 199.870915 109.704133 
L 201.995154 109.704133 
L 201.995154 108.367558 
L 204.473433 108.367558 
L 205.889593 105.694409 
L 206.597672 105.694409 
L 207.659792 104.357834 
L 210.492111 104.357834 
L 211.20019 103.02126 
L 214.740589 103.02126 
L 215.802708 101.684685 
L 223.237545 101.684685 
L 225.361784 100.34811 
L 231.026422 100.34811 
L 231.380462 99.011536 
L 242.355697 99.011536 
L 244.125897 97.674961 
L 255.101132 97.674961 
L 255.455172 96.338387 
L 261.827889 96.338387 
L 263.244049 95.001812 
L 264.660208 95.001812 
L 264.660208 93.665238 
L 281.300081 93.665238 
L 281.300081 92.328663 
L 285.902599 92.328663 
L 287.318759 90.992088 
L 291.921277 90.992088 
L 292.275317 89.655514 
L 294.045516 88.318939 
L 298.293994 88.318939 
L 299.356114 86.982365 
L 305.020751 86.982365 
L 305.374791 85.64579 
L 306.790951 85.64579 
L 309.977309 84.309215 
L 316.350027 84.309215 
L 316.704067 81.636066 
L 318.120226 80.299492 
L 320.952545 80.299492 
L 320.952545 78.962917 
L 322.722744 77.626343 
L 323.430824 76.289768 
L 328.387382 76.289768 
L 329.095461 70.94347 
L 340.778777 70.94347 
L 341.132816 69.606895 
L 347.859574 69.606895 
L 347.859574 68.27032 
L 353.524211 68.27032 
L 353.878251 66.933746 
L 358.480769 66.933746 
L 359.188849 61.587448 
L 384.679718 61.587448 
L 385.387798 58.914298 
L 388.220117 58.914298 
L 398.487273 53.568 
L 398.487273 53.568 
" clip-path="url(#pa4447f8b6f)" style="fill: none; stroke: #c44e52; stroke-width: 1.5; stroke-linecap: round"/>
   </g>
   <g id="line2d_17">
    <path d="M 73.832727 295.488 
L 74.793244 286.848 
L 76.394104 283.968 
L 80.556342 269.568 
L 82.157203 266.688 
L 83.437891 266.688 
L 85.038752 252.288 
L 89.20099 237.888 
L 90.161506 235.008 
L 93.043055 217.728 
L 93.363228 217.728 
L 94.964088 203.328 
L 96.244777 203.328 
L 96.885121 197.568 
L 99.446498 197.568 
L 100.727187 191.808 
L 104.569252 188.928 
L 108.411318 183.168 
L 109.692006 177.408 
L 112.573556 171.648 
L 112.893728 171.648 
L 115.455105 165.888 
L 116.735793 154.368 
L 120.257687 154.368 
L 122.498892 151.488 
L 124.419925 151.488 
L 125.380441 148.608 
L 152.595073 148.608 
L 156.75731 142.848 
L 159.63886 139.968 
L 204.142786 139.968 
L 207.024336 137.088 
L 217.910188 137.088 
L 221.752254 134.208 
L 228.155697 134.208 
L 231.997762 131.328 
L 233.278451 131.328 
L 238.721377 128.448 
L 244.804648 128.448 
L 248.646713 125.568 
L 249.60723 122.688 
L 252.808951 122.688 
L 253.769467 119.808 
L 255.370328 119.808 
L 256.330845 116.928 
L 258.892222 116.928 
L 259.852738 114.048 
L 263.054459 114.048 
L 266.896525 111.168 
L 270.738591 111.168 
L 274.580656 108.288 
L 278.422722 108.288 
L 281.304271 105.408 
L 282.905132 105.408 
L 290.589263 99.648 
L 291.229607 99.648 
L 292.830468 96.768 
L 302.755804 96.768 
L 306.918042 93.888 
L 309.479419 93.888 
L 312.360968 91.008 
L 316.843378 85.248 
L 319.404755 85.248 
L 322.286304 82.368 
L 322.606477 82.368 
L 326.448542 79.488 
L 328.689747 76.608 
L 331.251124 76.608 
L 332.851985 73.728 
L 336.053706 73.728 
L 338.294911 70.848 
L 342.136977 70.848 
L 347.900075 65.088 
L 351.742141 62.208 
L 352.382485 62.208 
L 398.487273 53.568 
L 398.487273 53.568 
" clip-path="url(#pa4447f8b6f)" style="fill: none; stroke: #8172b3; stroke-width: 1.5; stroke-linecap: round"/>
   </g>
   <g id="line2d_18">
    <path d="M 73.832727 295.488 
L 74.457664 295.488 
L 78.83222 287.287322 
L 80.707029 270.885966 
L 81.644434 266.785627 
L 82.269371 266.785627 
L 86.643927 258.584949 
L 87.8938 258.584949 
L 88.518737 250.384271 
L 90.081078 246.283932 
L 90.393546 242.183593 
L 94.768102 242.183593 
L 95.705507 238.083254 
L 96.017975 233.982915 
L 96.642912 233.982915 
L 97.267848 225.782237 
L 101.017468 192.979525 
L 117.890755 192.979525 
L 131.014423 184.778847 
L 145.700432 180.678508 
L 146.325369 172.477831 
L 148.825115 172.477831 
L 154.137076 168.377492 
L 155.386949 168.377492 
L 155.699417 164.277153 
L 156.636822 160.176814 
L 156.94929 156.076475 
L 163.823593 156.076475 
L 164.760997 151.976136 
L 177.259729 151.976136 
L 184.134031 143.775458 
L 185.383904 135.57478 
L 186.633777 135.57478 
L 187.258714 127.374102 
L 191.008333 127.374102 
L 191.320801 123.273763 
L 191.945738 119.173424 
L 192.258206 115.073085 
L 193.508079 115.073085 
L 193.820548 110.972746 
L 205.069406 110.972746 
L 206.006811 106.872407 
L 212.256176 106.872407 
L 212.881113 98.671729 
L 217.255669 98.671729 
L 217.568137 94.57139 
L 223.505035 94.57139 
L 224.129971 86.370712 
L 237.566107 86.370712 
L 238.503512 82.270373 
L 244.752878 82.270373 
L 247.877561 78.170034 
L 277.562047 78.170034 
L 277.874516 74.069695 
L 280.061794 74.069695 
L 280.374262 69.969356 
L 325.994631 69.969356 
L 326.307099 65.869017 
L 348.179879 65.869017 
L 354.116777 61.768678 
L 382.238922 61.768678 
L 382.55139 57.668339 
L 396.612463 57.668339 
L 398.487273 53.568 
L 398.487273 53.568 
" clip-path="url(#pa4447f8b6f)" style="fill: none; stroke: #937860; stroke-width: 1.5; stroke-linecap: round"/>
   </g>
   <g id="line2d_19">
    <path d="M 73.832727 295.488 
L 398.487273 53.568 
" clip-path="url(#pa4447f8b6f)" style="fill: none; stroke-dasharray: 5.55,2.4; stroke-dashoffset: 0; stroke: #808080; stroke-width: 1.5"/>
   </g>
   <g id="patch_3">
    <path d="M 57.6 307.584 
L 57.6 41.472 
" style="fill: none; stroke: #cccccc; stroke-width: 1.25; stroke-linejoin: miter; stroke-linecap: square"/>
   </g>
   <g id="patch_4">
    <path d="M 414.72 307.584 
L 414.72 41.472 
" style="fill: none; stroke: #cccccc; stroke-width: 1.25; stroke-linejoin: miter; stroke-linecap: square"/>
   </g>
   <g id="patch_5">
    <path d="M 57.6 307.584 
L 414.72 307.584 
" style="fill: none; stroke: #cccccc; stroke-width: 1.25; stroke-linejoin: miter; stroke-linecap: square"/>
   </g>
   <g id="patch_6">
    <path d="M 57.6 41.472 
L 414.72 41.472 
" style="fill: none; stroke: #cccccc; stroke-width: 1.25; stroke-linejoin: miter; stroke-linecap: square"/>
   </g>
   <g id="text_15">
    <!-- Receiver Operating Characteristic Curve -->
    <g style="fill: #262626" transform="translate(128.459063 35.472) scale(0.12 -0.12)">
     <defs>
      <path id="ArialMT-63" d="M 2588 1216 
L 3141 1144 
Q 3050 572 2676 248 
Q 2303 -75 1759 -75 
Q 1078 -75 664 370 
Q 250 816 250 1647 
Q 250 2184 428 2587 
Q 606 2991 970 3192 
Q 1334 3394 1763 3394 
Q 2303 3394 2647 3120 
Q 2991 2847 3088 2344 
L 2541 2259 
Q 2463 2594 2264 2762 
Q 2066 2931 1784 2931 
Q 1359 2931 1093 2626 
Q 828 2322 828 1663 
Q 828 994 1084 691 
Q 1341 388 1753 388 
Q 2084 388 2306 591 
Q 2528 794 2588 1216 
z
" transform="scale(0.015625)"/>
      <path id="ArialMT-4f" d="M 309 2231 
Q 309 3372 921 4017 
Q 1534 4663 2503 4663 
Q 3138 4663 3647 4359 
Q 4156 4056 4423 3514 
Q 4691 2972 4691 2284 
Q 4691 1588 4409 1038 
Q 4128 488 3612 205 
Q 3097 -78 2500 -78 
Q 1853 -78 1343 234 
Q 834 547 571 1087 
Q 309 1628 309 2231 
z
M 934 2222 
Q 934 1394 1379 917 
Q 1825 441 2497 441 
Q 3181 441 3623 922 
Q 4066 1403 4066 2288 
Q 4066 2847 3877 3264 
Q 3688 3681 3323 3911 
Q 2959 4141 2506 4141 
Q 1863 4141 1398 3698 
Q 934 3256 934 2222 
z
" transform="scale(0.015625)"/>
      <path id="ArialMT-70" d="M 422 -1272 
L 422 3319 
L 934 3319 
L 934 2888 
Q 1116 3141 1344 3267 
Q 1572 3394 1897 3394 
Q 2322 3394 2647 3175 
Q 2972 2956 3137 2557 
Q 3303 2159 3303 1684 
Q 3303 1175 3120 767 
Q 2938 359 2589 142 
Q 2241 -75 1856 -75 
Q 1575 -75 1351 44 
Q 1128 163 984 344 
L 984 -1272 
L 422 -1272 
z
M 931 1641 
Q 931 1000 1190 694 
Q 1450 388 1819 388 
Q 2194 388 2461 705 
Q 2728 1022 2728 1688 
Q 2728 2322 2467 2637 
Q 2206 2953 1844 2953 
Q 1484 2953 1207 2617 
Q 931 2281 931 1641 
z
" transform="scale(0.015625)"/>
      <path id="ArialMT-6e" d="M 422 0 
L 422 3319 
L 928 3319 
L 928 2847 
Q 1294 3394 1984 3394 
Q 2284 3394 2536 3286 
Q 2788 3178 2913 3003 
Q 3038 2828 3088 2588 
Q 3119 2431 3119 2041 
L 3119 0 
L 2556 0 
L 2556 2019 
Q 2556 2363 2490 2533 
Q 2425 2703 2258 2804 
Q 2091 2906 1866 2906 
Q 1506 2906 1245 2678 
Q 984 2450 984 1813 
L 984 0 
L 422 0 
z
" transform="scale(0.015625)"/>
      <path id="ArialMT-67" d="M 319 -275 
L 866 -356 
Q 900 -609 1056 -725 
Q 1266 -881 1628 -881 
Q 2019 -881 2231 -725 
Q 2444 -569 2519 -288 
Q 2563 -116 2559 434 
Q 2191 0 1641 0 
Q 956 0 581 494 
Q 206 988 206 1678 
Q 206 2153 378 2554 
Q 550 2956 876 3175 
Q 1203 3394 1644 3394 
Q 2231 3394 2613 2919 
L 2613 3319 
L 3131 3319 
L 3131 450 
Q 3131 -325 2973 -648 
Q 2816 -972 2473 -1159 
Q 2131 -1347 1631 -1347 
Q 1038 -1347 672 -1080 
Q 306 -813 319 -275 
z
M 784 1719 
Q 784 1066 1043 766 
Q 1303 466 1694 466 
Q 2081 466 2343 764 
Q 2606 1063 2606 1700 
Q 2606 2309 2336 2618 
Q 2066 2928 1684 2928 
Q 1309 2928 1046 2623 
Q 784 2319 784 1719 
z
" transform="scale(0.015625)"/>
      <path id="ArialMT-43" d="M 3763 1606 
L 4369 1453 
Q 4178 706 3683 314 
Q 3188 -78 2472 -78 
Q 1731 -78 1267 223 
Q 803 525 561 1097 
Q 319 1669 319 2325 
Q 319 3041 592 3573 
Q 866 4106 1370 4382 
Q 1875 4659 2481 4659 
Q 3169 4659 3637 4309 
Q 4106 3959 4291 3325 
L 3694 3184 
Q 3534 3684 3231 3912 
Q 2928 4141 2469 4141 
Q 1941 4141 1586 3887 
Q 1231 3634 1087 3207 
Q 944 2781 944 2328 
Q 944 1744 1114 1308 
Q 1284 872 1643 656 
Q 2003 441 2422 441 
Q 2931 441 3284 734 
Q 3638 1028 3763 1606 
z
" transform="scale(0.015625)"/>
      <path id="ArialMT-68" d="M 422 0 
L 422 4581 
L 984 4581 
L 984 2938 
Q 1378 3394 1978 3394 
Q 2347 3394 2619 3248 
Q 2891 3103 3008 2847 
Q 3125 2591 3125 2103 
L 3125 0 
L 2563 0 
L 2563 2103 
Q 2563 2525 2380 2717 
Q 2197 2909 1863 2909 
Q 1613 2909 1392 2779 
Q 1172 2650 1078 2428 
Q 984 2206 984 1816 
L 984 0 
L 422 0 
z
" transform="scale(0.015625)"/>
     </defs>
     <use xlink:href="#ArialMT-52"/>
     <use xlink:href="#ArialMT-65" x="72.216797"/>
     <use xlink:href="#ArialMT-63" x="127.832031"/>
     <use xlink:href="#ArialMT-65" x="177.832031"/>
     <use xlink:href="#ArialMT-69" x="233.447266"/>
     <use xlink:href="#ArialMT-76" x="255.664062"/>
     <use xlink:href="#ArialMT-65" x="305.664062"/>
     <use xlink:href="#ArialMT-72" x="361.279297"/>
     <use xlink:href="#ArialMT-20" x="394.580078"/>
     <use xlink:href="#ArialMT-4f" x="422.363281"/>
     <use xlink:href="#ArialMT-70" x="500.146484"/>
     <use xlink:href="#ArialMT-65" x="555.761719"/>
     <use xlink:href="#ArialMT-72" x="611.376953"/>
     <use xlink:href="#ArialMT-61" x="644.677734"/>
     <use xlink:href="#ArialMT-74" x="700.292969"/>
     <use xlink:href="#ArialMT-69" x="728.076172"/>
     <use xlink:href="#ArialMT-6e" x="750.292969"/>
     <use xlink:href="#ArialMT-67" x="805.908203"/>
     <use xlink:href="#ArialMT-20" x="861.523438"/>
     <use xlink:href="#ArialMT-43" x="889.306641"/>
     <use xlink:href="#ArialMT-68" x="961.523438"/>
     <use xlink:href="#ArialMT-61" x="1017.138672"/>
     <use xlink:href="#ArialMT-72" x="1072.753906"/>
     <use xlink:href="#ArialMT-61" x="1106.054688"/>
     <use xlink:href="#ArialMT-63" x="1161.669922"/>
     <use xlink:href="#ArialMT-74" x="1211.669922"/>
     <use xlink:href="#ArialMT-65" x="1239.453125"/>
     <use xlink:href="#ArialMT-72" x="1295.068359"/>
     <use xlink:href="#ArialMT-69" x="1328.369141"/>
     <use xlink:href="#ArialMT-73" x="1350.585938"/>
     <use xlink:href="#ArialMT-74" x="1400.585938"/>
     <use xlink:href="#ArialMT-69" x="1428.369141"/>
     <use xlink:href="#ArialMT-63" x="1450.585938"/>
     <use xlink:href="#ArialMT-20" x="1500.585938"/>
     <use xlink:href="#ArialMT-43" x="1528.369141"/>
     <use xlink:href="#ArialMT-75" x="1600.585938"/>
     <use xlink:href="#ArialMT-72" x="1656.201172"/>
     <use xlink:href="#ArialMT-76" x="1689.501953"/>
     <use xlink:href="#ArialMT-65" x="1739.501953"/>
    </g>
   </g>
   <g id="legend_1">
    <g id="patch_7">
     <path d="M 239.16 302.084 
L 407.02 302.084 
Q 409.22 302.084 409.22 299.884 
L 409.22 172.801187 
Q 409.22 170.601187 407.02 170.601187 
L 239.16 170.601187 
Q 236.96 170.601187 236.96 172.801187 
L 236.96 299.884 
Q 236.96 302.084 239.16 302.084 
z
" style="fill: #ffffff; opacity: 0.8; stroke: #cccccc; stroke-linejoin: miter"/>
    </g>
    <g id="text_16">
     <!-- $\delta_{threshold}$ -->
     <g style="fill: #262626" transform="translate(299.33 183.776187) scale(0.12 -0.12)">
      <defs>
       <path id="DejaVuSans-Oblique-3b4" d="M 3472 4053 
Q 3197 4272 2450 4272 
Q 1659 4272 1588 3906 
Q 1531 3619 2328 3469 
Q 2953 3353 3253 3003 
Q 3616 2581 3447 1716 
Q 3284 888 2763 400 
Q 2238 -91 1488 -91 
Q 741 -91 406 400 
Q 72 888 241 1747 
Q 363 2384 891 2900 
Q 1097 3100 1353 3213 
Q 913 3459 1000 3900 
Q 1166 4750 2544 4750 
Q 3234 4750 3566 4531 
L 3472 4053 
z
M 1753 3056 
Q 1525 2966 1306 2738 
Q 969 2384 847 1747 
Q 722 1113 919 756 
Q 1119 397 1584 397 
Q 2044 397 2381 759 
Q 2722 1122 2838 1716 
Q 2956 2338 2731 2638 
Q 2491 2959 2103 2994 
Q 1906 3013 1753 3056 
z
" transform="scale(0.015625)"/>
       <path id="DejaVuSans-Oblique-74" d="M 2706 3500 
L 2619 3053 
L 1472 3053 
L 1100 1153 
Q 1081 1047 1072 975 
Q 1063 903 1063 863 
Q 1063 663 1183 572 
Q 1303 481 1569 481 
L 2150 481 
L 2053 0 
L 1503 0 
Q 991 0 739 200 
Q 488 400 488 806 
Q 488 878 497 964 
Q 506 1050 525 1153 
L 897 3053 
L 409 3053 
L 500 3500 
L 978 3500 
L 1172 4494 
L 1747 4494 
L 1556 3500 
L 2706 3500 
z
" transform="scale(0.015625)"/>
       <path id="DejaVuSans-Oblique-68" d="M 3566 2113 
L 3156 0 
L 2578 0 
L 2988 2091 
Q 3016 2238 3031 2350 
Q 3047 2463 3047 2528 
Q 3047 2791 2881 2937 
Q 2716 3084 2419 3084 
Q 1956 3084 1617 2771 
Q 1278 2459 1178 1941 
L 800 0 
L 225 0 
L 1172 4863 
L 1747 4863 
L 1375 2950 
Q 1594 3244 1934 3414 
Q 2275 3584 2650 3584 
Q 3113 3584 3367 3334 
Q 3622 3084 3622 2631 
Q 3622 2519 3608 2391 
Q 3594 2263 3566 2113 
z
" transform="scale(0.015625)"/>
       <path id="DejaVuSans-Oblique-72" d="M 2853 2969 
Q 2766 3016 2653 3041 
Q 2541 3066 2413 3066 
Q 1953 3066 1609 2717 
Q 1266 2369 1153 1784 
L 800 0 
L 225 0 
L 909 3500 
L 1484 3500 
L 1375 2956 
Q 1603 3259 1920 3421 
Q 2238 3584 2597 3584 
Q 2691 3584 2781 3573 
Q 2872 3563 2963 3538 
L 2853 2969 
z
" transform="scale(0.015625)"/>
       <path id="DejaVuSans-Oblique-65" d="M 3078 2063 
Q 3088 2113 3092 2166 
Q 3097 2219 3097 2272 
Q 3097 2653 2873 2875 
Q 2650 3097 2266 3097 
Q 1838 3097 1509 2826 
Q 1181 2556 1013 2059 
L 3078 2063 
z
M 3578 1613 
L 903 1613 
Q 884 1494 878 1425 
Q 872 1356 872 1306 
Q 872 872 1139 634 
Q 1406 397 1894 397 
Q 2269 397 2603 481 
Q 2938 566 3225 728 
L 3116 159 
Q 2806 34 2476 -28 
Q 2147 -91 1806 -91 
Q 1078 -91 686 257 
Q 294 606 294 1247 
Q 294 1794 489 2264 
Q 684 2734 1063 3103 
Q 1306 3334 1642 3459 
Q 1978 3584 2356 3584 
Q 2950 3584 3301 3228 
Q 3653 2872 3653 2272 
Q 3653 2128 3634 1964 
Q 3616 1800 3578 1613 
z
" transform="scale(0.015625)"/>
       <path id="DejaVuSans-Oblique-73" d="M 3200 3397 
L 3091 2853 
Q 2863 2978 2609 3040 
Q 2356 3103 2088 3103 
Q 1634 3103 1373 2948 
Q 1113 2794 1113 2528 
Q 1113 2219 1719 2053 
Q 1766 2041 1788 2034 
L 1972 1978 
Q 2547 1819 2739 1644 
Q 2931 1469 2931 1166 
Q 2931 609 2489 259 
Q 2047 -91 1331 -91 
Q 1053 -91 747 -37 
Q 441 16 72 128 
L 184 722 
Q 500 559 806 475 
Q 1113 391 1394 391 
Q 1816 391 2080 572 
Q 2344 753 2344 1031 
Q 2344 1331 1650 1516 
L 1591 1531 
L 1394 1581 
Q 956 1697 753 1886 
Q 550 2075 550 2369 
Q 550 2928 970 3256 
Q 1391 3584 2113 3584 
Q 2397 3584 2667 3537 
Q 2938 3491 3200 3397 
z
" transform="scale(0.015625)"/>
       <path id="DejaVuSans-Oblique-6f" d="M 1625 -91 
Q 1009 -91 651 289 
Q 294 669 294 1325 
Q 294 1706 417 2101 
Q 541 2497 738 2766 
Q 1047 3184 1428 3384 
Q 1809 3584 2291 3584 
Q 2888 3584 3255 3212 
Q 3622 2841 3622 2241 
Q 3622 1825 3500 1412 
Q 3378 1000 3181 728 
Q 2875 309 2494 109 
Q 2113 -91 1625 -91 
z
M 891 1344 
Q 891 869 1089 633 
Q 1288 397 1691 397 
Q 2269 397 2648 901 
Q 3028 1406 3028 2181 
Q 3028 2634 2825 2865 
Q 2622 3097 2228 3097 
Q 1903 3097 1650 2945 
Q 1397 2794 1197 2484 
Q 1050 2253 970 1956 
Q 891 1659 891 1344 
z
" transform="scale(0.015625)"/>
       <path id="DejaVuSans-Oblique-6c" d="M 1172 4863 
L 1747 4863 
L 800 0 
L 225 0 
L 1172 4863 
z
" transform="scale(0.015625)"/>
       <path id="DejaVuSans-Oblique-64" d="M 2675 525 
Q 2444 222 2128 65 
Q 1813 -91 1428 -91 
Q 903 -91 598 267 
Q 294 625 294 1247 
Q 294 1766 478 2236 
Q 663 2706 1013 3078 
Q 1244 3325 1534 3454 
Q 1825 3584 2144 3584 
Q 2481 3584 2739 3421 
Q 2997 3259 3138 2956 
L 3513 4863 
L 4091 4863 
L 3144 0 
L 2566 0 
L 2675 525 
z
M 891 1350 
Q 891 897 1095 644 
Q 1300 391 1663 391 
Q 1931 391 2161 520 
Q 2391 650 2566 903 
Q 2750 1166 2856 1509 
Q 2963 1853 2963 2188 
Q 2963 2622 2758 2865 
Q 2553 3109 2194 3109 
Q 1922 3109 1687 2981 
Q 1453 2853 1288 2613 
Q 1106 2353 998 2009 
Q 891 1666 891 1350 
z
" transform="scale(0.015625)"/>
      </defs>
      <use xlink:href="#DejaVuSans-Oblique-3b4" transform="translate(0 0.78125)"/>
      <use xlink:href="#DejaVuSans-Oblique-74" transform="translate(61.181641 -15.625) scale(0.7)"/>
      <use xlink:href="#DejaVuSans-Oblique-68" transform="translate(88.62793 -15.625) scale(0.7)"/>
      <use xlink:href="#DejaVuSans-Oblique-72" transform="translate(132.993164 -15.625) scale(0.7)"/>
      <use xlink:href="#DejaVuSans-Oblique-65" transform="translate(161.772461 -15.625) scale(0.7)"/>
      <use xlink:href="#DejaVuSans-Oblique-73" transform="translate(204.838867 -15.625) scale(0.7)"/>
      <use xlink:href="#DejaVuSans-Oblique-68" transform="translate(241.308594 -15.625) scale(0.7)"/>
      <use xlink:href="#DejaVuSans-Oblique-6f" transform="translate(285.673828 -15.625) scale(0.7)"/>
      <use xlink:href="#DejaVuSans-Oblique-6c" transform="translate(328.500977 -15.625) scale(0.7)"/>
      <use xlink:href="#DejaVuSans-Oblique-64" transform="translate(347.949219 -15.625) scale(0.7)"/>
     </g>
    </g>
    <g id="line2d_20">
     <path d="M 241.36 195.841187 
L 252.36 195.841187 
L 263.36 195.841187 
" style="fill: none; stroke: #4c72b0; stroke-width: 1.5; stroke-linecap: round"/>
    </g>
    <g id="text_17">
     <!-- 2.0$\sigma$ (AUCROC = 0.85) -->
     <g style="fill: #262626" transform="translate(272.16 199.691187) scale(0.11 -0.11)">
      <defs>
       <path id="DejaVuSans-Oblique-3c3" d="M 2219 3044 
Q 1744 3044 1422 2700 
Q 1081 2341 969 1747 
Q 844 1119 1044 756 
Q 1241 397 1706 397 
Q 2166 397 2503 759 
Q 2844 1122 2966 1747 
Q 3075 2319 2881 2700 
Q 2700 3044 2219 3044 
z
M 2309 3503 
L 4219 3500 
L 4106 2925 
L 3463 2925 
Q 3706 2438 3575 1747 
Q 3406 888 2884 400 
Q 2359 -91 1609 -91 
Q 856 -91 525 400 
Q 194 888 363 1747 
Q 528 2609 1050 3097 
Q 1484 3503 2309 3503 
z
" transform="scale(0.015625)"/>
       <path id="ArialMT-28" d="M 1497 -1347 
Q 1031 -759 709 28 
Q 388 816 388 1659 
Q 388 2403 628 3084 
Q 909 3875 1497 4659 
L 1900 4659 
Q 1522 4009 1400 3731 
Q 1209 3300 1100 2831 
Q 966 2247 966 1656 
Q 966 153 1900 -1347 
L 1497 -1347 
z
" transform="scale(0.015625)"/>
       <path id="ArialMT-41" d="M -9 0 
L 1750 4581 
L 2403 4581 
L 4278 0 
L 3588 0 
L 3053 1388 
L 1138 1388 
L 634 0 
L -9 0 
z
M 1313 1881 
L 2866 1881 
L 2388 3150 
Q 2169 3728 2063 4100 
Q 1975 3659 1816 3225 
L 1313 1881 
z
" transform="scale(0.015625)"/>
       <path id="ArialMT-55" d="M 3500 4581 
L 4106 4581 
L 4106 1934 
Q 4106 1244 3950 837 
Q 3794 431 3386 176 
Q 2978 -78 2316 -78 
Q 1672 -78 1262 144 
Q 853 366 678 786 
Q 503 1206 503 1934 
L 503 4581 
L 1109 4581 
L 1109 1938 
Q 1109 1341 1220 1058 
Q 1331 775 1601 622 
Q 1872 469 2263 469 
Q 2931 469 3215 772 
Q 3500 1075 3500 1938 
L 3500 4581 
z
" transform="scale(0.015625)"/>
       <path id="ArialMT-3d" d="M 3381 2694 
L 356 2694 
L 356 3219 
L 3381 3219 
L 3381 2694 
z
M 3381 1303 
L 356 1303 
L 356 1828 
L 3381 1828 
L 3381 1303 
z
" transform="scale(0.015625)"/>
       <path id="ArialMT-35" d="M 266 1200 
L 856 1250 
Q 922 819 1161 601 
Q 1400 384 1738 384 
Q 2144 384 2425 690 
Q 2706 997 2706 1503 
Q 2706 1984 2436 2262 
Q 2166 2541 1728 2541 
Q 1456 2541 1237 2417 
Q 1019 2294 894 2097 
L 366 2166 
L 809 4519 
L 3088 4519 
L 3088 3981 
L 1259 3981 
L 1013 2750 
Q 1425 3038 1878 3038 
Q 2478 3038 2890 2622 
Q 3303 2206 3303 1553 
Q 3303 931 2941 478 
Q 2500 -78 1738 -78 
Q 1113 -78 717 272 
Q 322 622 266 1200 
z
" transform="scale(0.015625)"/>
       <path id="ArialMT-29" d="M 791 -1347 
L 388 -1347 
Q 1322 153 1322 1656 
Q 1322 2244 1188 2822 
Q 1081 3291 891 3722 
Q 769 4003 388 4659 
L 791 4659 
Q 1378 3875 1659 3084 
Q 1900 2403 1900 1659 
Q 1900 816 1576 28 
Q 1253 -759 791 -1347 
z
" transform="scale(0.015625)"/>
      </defs>
      <use xlink:href="#ArialMT-32" transform="translate(0 0.140625)"/>
      <use xlink:href="#ArialMT-2e" transform="translate(55.615234 0.140625)"/>
      <use xlink:href="#ArialMT-30" transform="translate(83.398438 0.140625)"/>
      <use xlink:href="#DejaVuSans-Oblique-3c3" transform="translate(139.013672 0.140625)"/>
      <use xlink:href="#ArialMT-20" transform="translate(202.392578 0.140625)"/>
      <use xlink:href="#ArialMT-28" transform="translate(230.175781 0.140625)"/>
      <use xlink:href="#ArialMT-41" transform="translate(263.476562 0.140625)"/>
      <use xlink:href="#ArialMT-55" transform="translate(330.175781 0.140625)"/>
      <use xlink:href="#ArialMT-43" transform="translate(402.392578 0.140625)"/>
      <use xlink:href="#ArialMT-52" transform="translate(474.609375 0.140625)"/>
      <use xlink:href="#ArialMT-4f" transform="translate(546.826172 0.140625)"/>
      <use xlink:href="#ArialMT-43" transform="translate(624.609375 0.140625)"/>
      <use xlink:href="#ArialMT-20" transform="translate(696.826172 0.140625)"/>
      <use xlink:href="#ArialMT-3d" transform="translate(724.609375 0.140625)"/>
      <use xlink:href="#ArialMT-20" transform="translate(783.007812 0.140625)"/>
      <use xlink:href="#ArialMT-30" transform="translate(810.791016 0.140625)"/>
      <use xlink:href="#ArialMT-2e" transform="translate(866.40625 0.140625)"/>
      <use xlink:href="#ArialMT-38" transform="translate(894.189453 0.140625)"/>
      <use xlink:href="#ArialMT-35" transform="translate(949.804688 0.140625)"/>
      <use xlink:href="#ArialMT-29" transform="translate(1005.419922 0.140625)"/>
     </g>
    </g>
    <g id="line2d_21">
     <path d="M 241.36 211.791187 
L 252.36 211.791187 
L 263.36 211.791187 
" style="fill: none; stroke: #dd8452; stroke-width: 1.5; stroke-linecap: round"/>
    </g>
    <g id="text_18">
     <!-- 1.0$\sigma$ (AUCROC = 0.89) -->
     <g style="fill: #262626" transform="translate(272.16 215.641187) scale(0.11 -0.11)">
      <defs>
       <path id="ArialMT-39" d="M 350 1059 
L 891 1109 
Q 959 728 1153 556 
Q 1347 384 1650 384 
Q 1909 384 2104 503 
Q 2300 622 2425 820 
Q 2550 1019 2634 1356 
Q 2719 1694 2719 2044 
Q 2719 2081 2716 2156 
Q 2547 1888 2255 1720 
Q 1963 1553 1622 1553 
Q 1053 1553 659 1965 
Q 266 2378 266 3053 
Q 266 3750 677 4175 
Q 1088 4600 1706 4600 
Q 2153 4600 2523 4359 
Q 2894 4119 3086 3673 
Q 3278 3228 3278 2384 
Q 3278 1506 3087 986 
Q 2897 466 2520 194 
Q 2144 -78 1638 -78 
Q 1100 -78 759 220 
Q 419 519 350 1059 
z
M 2653 3081 
Q 2653 3566 2395 3850 
Q 2138 4134 1775 4134 
Q 1400 4134 1122 3828 
Q 844 3522 844 3034 
Q 844 2597 1108 2323 
Q 1372 2050 1759 2050 
Q 2150 2050 2401 2323 
Q 2653 2597 2653 3081 
z
" transform="scale(0.015625)"/>
      </defs>
      <use xlink:href="#ArialMT-31" transform="translate(0 0.140625)"/>
      <use xlink:href="#ArialMT-2e" transform="translate(55.615234 0.140625)"/>
      <use xlink:href="#ArialMT-30" transform="translate(83.398438 0.140625)"/>
      <use xlink:href="#DejaVuSans-Oblique-3c3" transform="translate(139.013672 0.140625)"/>
      <use xlink:href="#ArialMT-20" transform="translate(202.392578 0.140625)"/>
      <use xlink:href="#ArialMT-28" transform="translate(230.175781 0.140625)"/>
      <use xlink:href="#ArialMT-41" transform="translate(263.476562 0.140625)"/>
      <use xlink:href="#ArialMT-55" transform="translate(330.175781 0.140625)"/>
      <use xlink:href="#ArialMT-43" transform="translate(402.392578 0.140625)"/>
      <use xlink:href="#ArialMT-52" transform="translate(474.609375 0.140625)"/>
      <use xlink:href="#ArialMT-4f" transform="translate(546.826172 0.140625)"/>
      <use xlink:href="#ArialMT-43" transform="translate(624.609375 0.140625)"/>
      <use xlink:href="#ArialMT-20" transform="translate(696.826172 0.140625)"/>
      <use xlink:href="#ArialMT-3d" transform="translate(724.609375 0.140625)"/>
      <use xlink:href="#ArialMT-20" transform="translate(783.007812 0.140625)"/>
      <use xlink:href="#ArialMT-30" transform="translate(810.791016 0.140625)"/>
      <use xlink:href="#ArialMT-2e" transform="translate(866.40625 0.140625)"/>
      <use xlink:href="#ArialMT-38" transform="translate(894.189453 0.140625)"/>
      <use xlink:href="#ArialMT-39" transform="translate(949.804688 0.140625)"/>
      <use xlink:href="#ArialMT-29" transform="translate(1005.419922 0.140625)"/>
     </g>
    </g>
    <g id="line2d_22">
     <path d="M 241.36 227.741187 
L 252.36 227.741187 
L 263.36 227.741187 
" style="fill: none; stroke: #55a868; stroke-width: 1.5; stroke-linecap: round"/>
    </g>
    <g id="text_19">
     <!-- 0.5$\sigma$ (AUCROC = 0.82) -->
     <g style="fill: #262626" transform="translate(272.16 231.591187) scale(0.11 -0.11)">
      <use xlink:href="#ArialMT-30" transform="translate(0 0.140625)"/>
      <use xlink:href="#ArialMT-2e" transform="translate(55.615234 0.140625)"/>
      <use xlink:href="#ArialMT-35" transform="translate(83.398438 0.140625)"/>
      <use xlink:href="#DejaVuSans-Oblique-3c3" transform="translate(139.013672 0.140625)"/>
      <use xlink:href="#ArialMT-20" transform="translate(202.392578 0.140625)"/>
      <use xlink:href="#ArialMT-28" transform="translate(230.175781 0.140625)"/>
      <use xlink:href="#ArialMT-41" transform="translate(263.476562 0.140625)"/>
      <use xlink:href="#ArialMT-55" transform="translate(330.175781 0.140625)"/>
      <use xlink:href="#ArialMT-43" transform="translate(402.392578 0.140625)"/>
      <use xlink:href="#ArialMT-52" transform="translate(474.609375 0.140625)"/>
      <use xlink:href="#ArialMT-4f" transform="translate(546.826172 0.140625)"/>
      <use xlink:href="#ArialMT-43" transform="translate(624.609375 0.140625)"/>
      <use xlink:href="#ArialMT-20" transform="translate(696.826172 0.140625)"/>
      <use xlink:href="#ArialMT-3d" transform="translate(724.609375 0.140625)"/>
      <use xlink:href="#ArialMT-20" transform="translate(783.007812 0.140625)"/>
      <use xlink:href="#ArialMT-30" transform="translate(810.791016 0.140625)"/>
      <use xlink:href="#ArialMT-2e" transform="translate(866.40625 0.140625)"/>
      <use xlink:href="#ArialMT-38" transform="translate(894.189453 0.140625)"/>
      <use xlink:href="#ArialMT-32" transform="translate(949.804688 0.140625)"/>
      <use xlink:href="#ArialMT-29" transform="translate(1005.419922 0.140625)"/>
     </g>
    </g>
    <g id="line2d_23">
     <path d="M 241.36 243.691187 
L 252.36 243.691187 
L 263.36 243.691187 
" style="fill: none; stroke: #c44e52; stroke-width: 1.5; stroke-linecap: round"/>
    </g>
    <g id="text_20">
     <!-- 0.25$\sigma$ (AUCROC = 0.73) -->
     <g style="fill: #262626" transform="translate(272.16 247.541187) scale(0.11 -0.11)">
      <defs>
       <path id="ArialMT-37" d="M 303 3981 
L 303 4522 
L 3269 4522 
L 3269 4084 
Q 2831 3619 2401 2847 
Q 1972 2075 1738 1259 
Q 1569 684 1522 0 
L 944 0 
Q 953 541 1156 1306 
Q 1359 2072 1739 2783 
Q 2119 3494 2547 3981 
L 303 3981 
z
" transform="scale(0.015625)"/>
       <path id="ArialMT-33" d="M 269 1209 
L 831 1284 
Q 928 806 1161 595 
Q 1394 384 1728 384 
Q 2125 384 2398 659 
Q 2672 934 2672 1341 
Q 2672 1728 2419 1979 
Q 2166 2231 1775 2231 
Q 1616 2231 1378 2169 
L 1441 2663 
Q 1497 2656 1531 2656 
Q 1891 2656 2178 2843 
Q 2466 3031 2466 3422 
Q 2466 3731 2256 3934 
Q 2047 4138 1716 4138 
Q 1388 4138 1169 3931 
Q 950 3725 888 3313 
L 325 3413 
Q 428 3978 793 4289 
Q 1159 4600 1703 4600 
Q 2078 4600 2393 4439 
Q 2709 4278 2876 4000 
Q 3044 3722 3044 3409 
Q 3044 3113 2884 2869 
Q 2725 2625 2413 2481 
Q 2819 2388 3044 2092 
Q 3269 1797 3269 1353 
Q 3269 753 2831 336 
Q 2394 -81 1725 -81 
Q 1122 -81 723 278 
Q 325 638 269 1209 
z
" transform="scale(0.015625)"/>
      </defs>
      <use xlink:href="#ArialMT-30" transform="translate(0 0.140625)"/>
      <use xlink:href="#ArialMT-2e" transform="translate(55.615234 0.140625)"/>
      <use xlink:href="#ArialMT-32" transform="translate(83.398438 0.140625)"/>
      <use xlink:href="#ArialMT-35" transform="translate(139.013672 0.140625)"/>
      <use xlink:href="#DejaVuSans-Oblique-3c3" transform="translate(194.628906 0.140625)"/>
      <use xlink:href="#ArialMT-20" transform="translate(258.007812 0.140625)"/>
      <use xlink:href="#ArialMT-28" transform="translate(285.791016 0.140625)"/>
      <use xlink:href="#ArialMT-41" transform="translate(319.091797 0.140625)"/>
      <use xlink:href="#ArialMT-55" transform="translate(385.791016 0.140625)"/>
      <use xlink:href="#ArialMT-43" transform="translate(458.007812 0.140625)"/>
      <use xlink:href="#ArialMT-52" transform="translate(530.224609 0.140625)"/>
      <use xlink:href="#ArialMT-4f" transform="translate(602.441406 0.140625)"/>
      <use xlink:href="#ArialMT-43" transform="translate(680.224609 0.140625)"/>
      <use xlink:href="#ArialMT-20" transform="translate(752.441406 0.140625)"/>
      <use xlink:href="#ArialMT-3d" transform="translate(780.224609 0.140625)"/>
      <use xlink:href="#ArialMT-20" transform="translate(838.623047 0.140625)"/>
      <use xlink:href="#ArialMT-30" transform="translate(866.40625 0.140625)"/>
      <use xlink:href="#ArialMT-2e" transform="translate(922.021484 0.140625)"/>
      <use xlink:href="#ArialMT-37" transform="translate(949.804688 0.140625)"/>
      <use xlink:href="#ArialMT-33" transform="translate(1005.419922 0.140625)"/>
      <use xlink:href="#ArialMT-29" transform="translate(1061.035156 0.140625)"/>
     </g>
    </g>
    <g id="line2d_24">
     <path d="M 241.36 259.641187 
L 252.36 259.641187 
L 263.36 259.641187 
" style="fill: none; stroke: #8172b3; stroke-width: 1.5; stroke-linecap: round"/>
    </g>
    <g id="text_21">
     <!-- 0.125$\sigma$ (AUCROC = 0.71) -->
     <g style="fill: #262626" transform="translate(272.16 263.491187) scale(0.11 -0.11)">
      <use xlink:href="#ArialMT-30" transform="translate(0 0.140625)"/>
      <use xlink:href="#ArialMT-2e" transform="translate(55.615234 0.140625)"/>
      <use xlink:href="#ArialMT-31" transform="translate(83.398438 0.140625)"/>
      <use xlink:href="#ArialMT-32" transform="translate(139.013672 0.140625)"/>
      <use xlink:href="#ArialMT-35" transform="translate(194.628906 0.140625)"/>
      <use xlink:href="#DejaVuSans-Oblique-3c3" transform="translate(250.244141 0.140625)"/>
      <use xlink:href="#ArialMT-20" transform="translate(313.623047 0.140625)"/>
      <use xlink:href="#ArialMT-28" transform="translate(341.40625 0.140625)"/>
      <use xlink:href="#ArialMT-41" transform="translate(374.707031 0.140625)"/>
      <use xlink:href="#ArialMT-55" transform="translate(441.40625 0.140625)"/>
      <use xlink:href="#ArialMT-43" transform="translate(513.623047 0.140625)"/>
      <use xlink:href="#ArialMT-52" transform="translate(585.839844 0.140625)"/>
      <use xlink:href="#ArialMT-4f" transform="translate(658.056641 0.140625)"/>
      <use xlink:href="#ArialMT-43" transform="translate(735.839844 0.140625)"/>
      <use xlink:href="#ArialMT-20" transform="translate(808.056641 0.140625)"/>
      <use xlink:href="#ArialMT-3d" transform="translate(835.839844 0.140625)"/>
      <use xlink:href="#ArialMT-20" transform="translate(894.238281 0.140625)"/>
      <use xlink:href="#ArialMT-30" transform="translate(922.021484 0.140625)"/>
      <use xlink:href="#ArialMT-2e" transform="translate(977.636719 0.140625)"/>
      <use xlink:href="#ArialMT-37" transform="translate(1005.419922 0.140625)"/>
      <use xlink:href="#ArialMT-31" transform="translate(1061.035156 0.140625)"/>
      <use xlink:href="#ArialMT-29" transform="translate(1116.650391 0.140625)"/>
     </g>
    </g>
    <g id="line2d_25">
     <path d="M 241.36 275.591187 
L 252.36 275.591187 
L 263.36 275.591187 
" style="fill: none; stroke: #937860; stroke-width: 1.5; stroke-linecap: round"/>
    </g>
    <g id="text_22">
     <!-- 0.0625$\sigma$ (AUCROC = 0.74) -->
     <g style="fill: #262626" transform="translate(272.16 279.441187) scale(0.11 -0.11)">
      <use xlink:href="#ArialMT-30" transform="translate(0 0.140625)"/>
      <use xlink:href="#ArialMT-2e" transform="translate(55.615234 0.140625)"/>
      <use xlink:href="#ArialMT-30" transform="translate(83.398438 0.140625)"/>
      <use xlink:href="#ArialMT-36" transform="translate(139.013672 0.140625)"/>
      <use xlink:href="#ArialMT-32" transform="translate(194.628906 0.140625)"/>
      <use xlink:href="#ArialMT-35" transform="translate(250.244141 0.140625)"/>
      <use xlink:href="#DejaVuSans-Oblique-3c3" transform="translate(305.859375 0.140625)"/>
      <use xlink:href="#ArialMT-20" transform="translate(369.238281 0.140625)"/>
      <use xlink:href="#ArialMT-28" transform="translate(397.021484 0.140625)"/>
      <use xlink:href="#ArialMT-41" transform="translate(430.322266 0.140625)"/>
      <use xlink:href="#ArialMT-55" transform="translate(497.021484 0.140625)"/>
      <use xlink:href="#ArialMT-43" transform="translate(569.238281 0.140625)"/>
      <use xlink:href="#ArialMT-52" transform="translate(641.455078 0.140625)"/>
      <use xlink:href="#ArialMT-4f" transform="translate(713.671875 0.140625)"/>
      <use xlink:href="#ArialMT-43" transform="translate(791.455078 0.140625)"/>
      <use xlink:href="#ArialMT-20" transform="translate(863.671875 0.140625)"/>
      <use xlink:href="#ArialMT-3d" transform="translate(891.455078 0.140625)"/>
      <use xlink:href="#ArialMT-20" transform="translate(949.853516 0.140625)"/>
      <use xlink:href="#ArialMT-30" transform="translate(977.636719 0.140625)"/>
      <use xlink:href="#ArialMT-2e" transform="translate(1033.251953 0.140625)"/>
      <use xlink:href="#ArialMT-37" transform="translate(1061.035156 0.140625)"/>
      <use xlink:href="#ArialMT-34" transform="translate(1116.650391 0.140625)"/>
      <use xlink:href="#ArialMT-29" transform="translate(1172.265625 0.140625)"/>
     </g>
    </g>
    <g id="line2d_26">
     <path d="M 241.36 291.518844 
L 252.36 291.518844 
L 263.36 291.518844 
" style="fill: none; stroke-dasharray: 5.55,2.4; stroke-dashoffset: 0; stroke: #808080; stroke-width: 1.5"/>
    </g>
    <g id="text_23">
     <!-- Baseline (AUCPR = 0.50) -->
     <g style="fill: #262626" transform="translate(272.16 295.368844) scale(0.11 -0.11)">
      <defs>
       <path id="ArialMT-42" d="M 469 0 
L 469 4581 
L 2188 4581 
Q 2713 4581 3030 4442 
Q 3347 4303 3526 4014 
Q 3706 3725 3706 3409 
Q 3706 3116 3547 2856 
Q 3388 2597 3066 2438 
Q 3481 2316 3704 2022 
Q 3928 1728 3928 1328 
Q 3928 1006 3792 729 
Q 3656 453 3456 303 
Q 3256 153 2954 76 
Q 2653 0 2216 0 
L 469 0 
z
M 1075 2656 
L 2066 2656 
Q 2469 2656 2644 2709 
Q 2875 2778 2992 2937 
Q 3109 3097 3109 3338 
Q 3109 3566 3000 3739 
Q 2891 3913 2687 3977 
Q 2484 4041 1991 4041 
L 1075 4041 
L 1075 2656 
z
M 1075 541 
L 2216 541 
Q 2509 541 2628 563 
Q 2838 600 2978 687 
Q 3119 775 3209 942 
Q 3300 1109 3300 1328 
Q 3300 1584 3169 1773 
Q 3038 1963 2805 2039 
Q 2572 2116 2134 2116 
L 1075 2116 
L 1075 541 
z
" transform="scale(0.015625)"/>
      </defs>
      <use xlink:href="#ArialMT-42"/>
      <use xlink:href="#ArialMT-61" x="66.699219"/>
      <use xlink:href="#ArialMT-73" x="122.314453"/>
      <use xlink:href="#ArialMT-65" x="172.314453"/>
      <use xlink:href="#ArialMT-6c" x="227.929688"/>
      <use xlink:href="#ArialMT-69" x="250.146484"/>
      <use xlink:href="#ArialMT-6e" x="272.363281"/>
      <use xlink:href="#ArialMT-65" x="327.978516"/>
      <use xlink:href="#ArialMT-20" x="383.59375"/>
      <use xlink:href="#ArialMT-28" x="411.376953"/>
      <use xlink:href="#ArialMT-41" x="444.677734"/>
      <use xlink:href="#ArialMT-55" x="511.376953"/>
      <use xlink:href="#ArialMT-43" x="583.59375"/>
      <use xlink:href="#ArialMT-50" x="655.810547"/>
      <use xlink:href="#ArialMT-52" x="722.509766"/>
      <use xlink:href="#ArialMT-20" x="794.726562"/>
      <use xlink:href="#ArialMT-3d" x="822.509766"/>
      <use xlink:href="#ArialMT-20" x="880.908203"/>
      <use xlink:href="#ArialMT-30" x="908.691406"/>
      <use xlink:href="#ArialMT-2e" x="964.306641"/>
      <use xlink:href="#ArialMT-35" x="992.089844"/>
      <use xlink:href="#ArialMT-30" x="1047.705078"/>
      <use xlink:href="#ArialMT-29" x="1103.320312"/>
     </g>
    </g>
   </g>
  </g>
 </g>
 <defs>
  <clipPath id="pa4447f8b6f">
   <rect x="57.6" y="41.472" width="357.12" height="266.112"/>
  </clipPath>
 </defs>
</svg>
